<mxfile host="app.diagrams.net" modified="2022-08-02T03:57:19.164Z" agent="5.0 (Windows NT 10.0; Win64; x64) AppleWebKit/537.36 (KHTML, like Gecko) Chrome/103.0.5060.134 Safari/537.36 Edg/103.0.1264.77" etag="asDIEgf1VtyD4e7DFepV" version="20.2.2" type="github">
  <diagram id="sPIk70jQrlHUL2haArS1" name="Page-1">
    <mxGraphModel dx="1038" dy="1429" grid="1" gridSize="10" guides="1" tooltips="1" connect="1" arrows="1" fold="1" page="1" pageScale="1" pageWidth="1100" pageHeight="850" math="0" shadow="0">
      <root>
        <mxCell id="0" />
        <mxCell id="1" parent="0" />
        <mxCell id="zCbiE_UP_g8nWA5C_TtH-1" style="edgeStyle=orthogonalEdgeStyle;rounded=0;orthogonalLoop=1;jettySize=auto;html=1;" edge="1" parent="1" source="zCbiE_UP_g8nWA5C_TtH-4">
          <mxGeometry relative="1" as="geometry">
            <mxPoint x="500" y="90" as="targetPoint" />
            <Array as="points">
              <mxPoint x="500" y="245" />
            </Array>
          </mxGeometry>
        </mxCell>
        <mxCell id="zCbiE_UP_g8nWA5C_TtH-2" value="&lt;span style=&quot;font-size: 12px; background-color: rgb(248, 249, 250);&quot;&gt;send&amp;nbsp; Data&lt;/span&gt;" style="edgeLabel;html=1;align=center;verticalAlign=middle;resizable=0;points=[];" connectable="0" vertex="1" parent="zCbiE_UP_g8nWA5C_TtH-1">
          <mxGeometry x="0.174" y="1" relative="1" as="geometry">
            <mxPoint as="offset" />
          </mxGeometry>
        </mxCell>
        <mxCell id="zCbiE_UP_g8nWA5C_TtH-3" style="edgeStyle=orthogonalEdgeStyle;rounded=0;orthogonalLoop=1;jettySize=auto;html=1;entryX=0.5;entryY=0;entryDx=0;entryDy=0;" edge="1" parent="1" source="zCbiE_UP_g8nWA5C_TtH-4" target="zCbiE_UP_g8nWA5C_TtH-28">
          <mxGeometry relative="1" as="geometry" />
        </mxCell>
        <mxCell id="zCbiE_UP_g8nWA5C_TtH-4" value="Forest Ministry" style="shape=image;html=1;verticalAlign=top;verticalLabelPosition=bottom;labelBackgroundColor=#ffffff;imageAspect=0;aspect=fixed;image=https://cdn2.iconfinder.com/data/icons/web-development-and-studio/512/118_forest_camping_jungle_tree_pines_camping_camp-128.png" vertex="1" parent="1">
          <mxGeometry x="310" y="180" width="100" height="100" as="geometry" />
        </mxCell>
        <mxCell id="zCbiE_UP_g8nWA5C_TtH-5" value="" style="edgeStyle=orthogonalEdgeStyle;rounded=0;orthogonalLoop=1;jettySize=auto;html=1;" edge="1" parent="1" target="zCbiE_UP_g8nWA5C_TtH-11">
          <mxGeometry relative="1" as="geometry">
            <mxPoint x="620" y="370" as="sourcePoint" />
            <Array as="points">
              <mxPoint x="620" y="472" />
            </Array>
          </mxGeometry>
        </mxCell>
        <mxCell id="zCbiE_UP_g8nWA5C_TtH-6" value="&lt;span style=&quot;font-size: 12px; background-color: rgb(248, 249, 250);&quot;&gt;got to see desired data&lt;br&gt;&lt;br&gt;&lt;/span&gt;" style="edgeLabel;html=1;align=center;verticalAlign=middle;resizable=0;points=[];" connectable="0" vertex="1" parent="zCbiE_UP_g8nWA5C_TtH-5">
          <mxGeometry x="-0.241" y="-1" relative="1" as="geometry">
            <mxPoint as="offset" />
          </mxGeometry>
        </mxCell>
        <mxCell id="zCbiE_UP_g8nWA5C_TtH-7" value="System" style="shape=mxgraph.cisco.misc.front_end_processor;html=1;pointerEvents=1;dashed=0;fillColor=#036897;strokeColor=#ffffff;strokeWidth=2;verticalLabelPosition=bottom;verticalAlign=top;align=center;outlineConnect=0;" vertex="1" parent="1">
          <mxGeometry x="610" y="120.5" width="120" height="249" as="geometry" />
        </mxCell>
        <mxCell id="zCbiE_UP_g8nWA5C_TtH-8" style="edgeStyle=orthogonalEdgeStyle;rounded=0;orthogonalLoop=1;jettySize=auto;html=1;startArrow=none;exitX=0.5;exitY=0;exitDx=0;exitDy=0;exitPerimeter=0;" edge="1" parent="1" source="zCbiE_UP_g8nWA5C_TtH-10">
          <mxGeometry relative="1" as="geometry">
            <mxPoint x="680" y="-10" as="sourcePoint" />
            <mxPoint x="680" y="120" as="targetPoint" />
            <Array as="points">
              <mxPoint x="495" />
              <mxPoint x="680" />
            </Array>
          </mxGeometry>
        </mxCell>
        <mxCell id="zCbiE_UP_g8nWA5C_TtH-9" value="Input data" style="edgeLabel;html=1;align=center;verticalAlign=middle;resizable=0;points=[];" connectable="0" vertex="1" parent="zCbiE_UP_g8nWA5C_TtH-8">
          <mxGeometry x="0.5546" y="2" relative="1" as="geometry">
            <mxPoint as="offset" />
          </mxGeometry>
        </mxCell>
        <mxCell id="zCbiE_UP_g8nWA5C_TtH-10" value="Admin" style="sketch=0;pointerEvents=1;shadow=0;dashed=0;html=1;strokeColor=none;labelPosition=center;verticalLabelPosition=bottom;verticalAlign=top;align=center;fillColor=#515151;shape=mxgraph.mscae.system_center.admin_console" vertex="1" parent="1">
          <mxGeometry x="470" y="30" width="50" height="36" as="geometry" />
        </mxCell>
        <mxCell id="zCbiE_UP_g8nWA5C_TtH-11" value="Users" style="outlineConnect=0;dashed=0;verticalLabelPosition=bottom;verticalAlign=top;align=center;html=1;shape=mxgraph.aws3.users;fillColor=#000000;gradientColor=none;" vertex="1" parent="1">
          <mxGeometry x="490" y="440" width="66" height="63" as="geometry" />
        </mxCell>
        <mxCell id="zCbiE_UP_g8nWA5C_TtH-12" value="" style="group" connectable="0" vertex="1" parent="1">
          <mxGeometry x="7" y="20" width="140" height="126" as="geometry" />
        </mxCell>
        <mxCell id="zCbiE_UP_g8nWA5C_TtH-13" value="" style="edgeStyle=orthogonalEdgeStyle;rounded=0;orthogonalLoop=1;jettySize=auto;html=1;" edge="1" parent="zCbiE_UP_g8nWA5C_TtH-12" source="zCbiE_UP_g8nWA5C_TtH-14" target="zCbiE_UP_g8nWA5C_TtH-17">
          <mxGeometry relative="1" as="geometry" />
        </mxCell>
        <mxCell id="zCbiE_UP_g8nWA5C_TtH-14" value="WMD" style="aspect=fixed;perimeter=ellipsePerimeter;html=1;align=center;shadow=0;dashed=0;fontColor=#4277BB;labelBackgroundColor=#ffffff;fontSize=12;spacingTop=3;image;image=img/lib/ibm/users/sensor.svg;" vertex="1" parent="zCbiE_UP_g8nWA5C_TtH-12">
          <mxGeometry y="71" width="30" height="30" as="geometry" />
        </mxCell>
        <mxCell id="zCbiE_UP_g8nWA5C_TtH-15" value="" style="edgeStyle=orthogonalEdgeStyle;rounded=0;orthogonalLoop=1;jettySize=auto;html=1;" edge="1" parent="zCbiE_UP_g8nWA5C_TtH-12" source="zCbiE_UP_g8nWA5C_TtH-16" target="zCbiE_UP_g8nWA5C_TtH-17">
          <mxGeometry relative="1" as="geometry" />
        </mxCell>
        <mxCell id="zCbiE_UP_g8nWA5C_TtH-16" value="WMD" style="aspect=fixed;perimeter=ellipsePerimeter;html=1;align=center;shadow=0;dashed=0;fontColor=#4277BB;labelBackgroundColor=#ffffff;fontSize=12;spacingTop=3;image;image=img/lib/ibm/users/sensor.svg;" vertex="1" parent="zCbiE_UP_g8nWA5C_TtH-12">
          <mxGeometry x="43" width="30" height="30" as="geometry" />
        </mxCell>
        <object label="Weather Station" Workstation="" id="zCbiE_UP_g8nWA5C_TtH-17">
          <mxCell style="image;html=1;image=img/lib/clip_art/computers/Workstation_128x128.png" vertex="1" parent="zCbiE_UP_g8nWA5C_TtH-12">
            <mxGeometry x="60" y="46" width="80" height="80" as="geometry" />
          </mxCell>
        </object>
        <mxCell id="zCbiE_UP_g8nWA5C_TtH-18" value="Weather monitoring Devices" style="aspect=fixed;perimeter=ellipsePerimeter;html=1;align=center;shadow=0;dashed=0;fontColor=#4277BB;labelBackgroundColor=#ffffff;fontSize=12;spacingTop=3;image;image=img/lib/ibm/users/sensor.svg;fillColor=#000000;" vertex="1" parent="1">
          <mxGeometry x="290" y="-70" width="60" height="60" as="geometry" />
        </mxCell>
        <mxCell id="zCbiE_UP_g8nWA5C_TtH-19" value="" style="edgeStyle=orthogonalEdgeStyle;rounded=0;orthogonalLoop=1;jettySize=auto;html=1;" edge="1" parent="1" source="zCbiE_UP_g8nWA5C_TtH-20" target="zCbiE_UP_g8nWA5C_TtH-17">
          <mxGeometry relative="1" as="geometry" />
        </mxCell>
        <mxCell id="zCbiE_UP_g8nWA5C_TtH-20" value="Weather Monitoring &lt;br&gt;Devices(WMD)" style="aspect=fixed;perimeter=ellipsePerimeter;html=1;align=center;shadow=0;dashed=0;fontColor=#4277BB;labelBackgroundColor=#ffffff;fontSize=12;spacingTop=3;image;image=img/lib/ibm/users/sensor.svg;" vertex="1" parent="1">
          <mxGeometry x="158" width="30" height="30" as="geometry" />
        </mxCell>
        <mxCell id="zCbiE_UP_g8nWA5C_TtH-21" value="" style="group" connectable="0" vertex="1" parent="1">
          <mxGeometry x="60" y="408" width="138" height="102" as="geometry" />
        </mxCell>
        <mxCell id="zCbiE_UP_g8nWA5C_TtH-22" value="City Corporation" style="shape=image;html=1;verticalAlign=top;verticalLabelPosition=bottom;labelBackgroundColor=#ffffff;imageAspect=0;aspect=fixed;image=https://cdn0.iconfinder.com/data/icons/analytic-investment-and-balanced-scorecard/512/33_Architecture_and_City_Buildings_Canada_Tower_Landmark-128.png;fillColor=#000000;" vertex="1" parent="zCbiE_UP_g8nWA5C_TtH-21">
          <mxGeometry x="19.714285714285715" width="86.97540512226111" height="86.97540512226111" as="geometry" />
        </mxCell>
        <mxCell id="zCbiE_UP_g8nWA5C_TtH-23" value="" style="shape=image;html=1;verticalAlign=top;verticalLabelPosition=bottom;labelBackgroundColor=#ffffff;imageAspect=0;aspect=fixed;image=https://cdn2.iconfinder.com/data/icons/boxicons-regular-vol-1/24/bx-buildings-128.png;fillColor=#000000;" vertex="1" parent="zCbiE_UP_g8nWA5C_TtH-21">
          <mxGeometry y="42.38696808510638" width="46.20568397120121" height="46.20568397120121" as="geometry" />
        </mxCell>
        <mxCell id="zCbiE_UP_g8nWA5C_TtH-24" value="" style="shape=image;html=1;verticalAlign=top;verticalLabelPosition=bottom;labelBackgroundColor=#ffffff;imageAspect=0;aspect=fixed;image=https://cdn1.iconfinder.com/data/icons/software-engineering-and-video-gaming/512/501_Buildings_city_sensor_smart_urban_Hardware_Engineering_Internet-128.png;fillColor=#000000;" vertex="1" parent="zCbiE_UP_g8nWA5C_TtH-21">
          <mxGeometry x="76.81773399014779" y="30.281249999999996" width="61.15458172658984" height="61.15458172658984" as="geometry" />
        </mxCell>
        <mxCell id="zCbiE_UP_g8nWA5C_TtH-25" style="edgeStyle=orthogonalEdgeStyle;rounded=0;orthogonalLoop=1;jettySize=auto;html=1;entryX=0.5;entryY=0;entryDx=0;entryDy=0;" edge="1" parent="1" source="zCbiE_UP_g8nWA5C_TtH-26" target="zCbiE_UP_g8nWA5C_TtH-4">
          <mxGeometry relative="1" as="geometry" />
        </mxCell>
        <mxCell id="zCbiE_UP_g8nWA5C_TtH-26" value="Forest Ministry&#xa;Representative" style="shape=image;verticalLabelPosition=bottom;labelBackgroundColor=default;verticalAlign=top;aspect=fixed;imageAspect=0;image=data:image/png,iVBORw0KGgoAAAANSUhEUgAAAgAAAAIACAYAAAD0eNT6AAAABHNCSVQICAgIfAhkiAAAAAlwSFlzAAAN2QAADdkB5qHXhgAAABl0RVh0U29mdHdhcmUAd3d3Lmlua3NjYXBlLm9yZ5vuPBoAACAASURBVHic7N13nBvlnT/wz8yob3HvBYzBptlUp0AKIJKQOIWEEhIBTgglRZdLucsvuVwuheOSXCoX0VJoRoRQEgg4oYliOiZATDPFNAPubVerNuX5/SGvWa+1qzYzz8zo8369eNnWSpov9q6ezzxVEUKAiIIlmUrPArAfgD0B7DHk1y4AFgAx5FcxwmNFAGsAvA7gtSG/vpHLZnTX/meIyBEKAwCR/yVT6T0AHLXjv/cDmOPg5SwAa7F7MHgdwDO5bOYVB69NRDZhACDyqWQqHQbwSQBfRrXR94qtAP4x9L9cNvOy3JKIaDgGACKfSabSvQC+CeBsAFMll9OobQAex67BYHUum+EHEJEkDABEPpFMpRUAnwPwYwBT5FZji+2ohoL7AdwN4MFcNlOWWxJR52AAIPKBZCp9KICLALxDdi0OKgF4EMBdO/5bkctmDLklEQUXAwCRxyVT6S8COB9ARHYtLssDWI63A8E/c9mMJbckouBgACDyqGQqHQdwMYDTZdfiEVsA3AsgB+CWXDbzmuR6iHyNAYDIg5Kp9AQAtwE4THYtHvZPADcCuCmXzTwhuxgiv2EAIPKYZCo9CcCdABbKrsVHXgdw047/7uXcAaL6GACIPCSZSk9Bdbx7f9m1+NhWAH9DtXfg1lw2k5dcD5EnMQAQeUQylY4AeADA4bJrCZAygDsAXI3qUEFBcj1EnsEAQOQRyVT6lwC+LruOAMsD+AuAqwDkctmMKbkeIqkYAIg8IJlKLwZwMwBFdi0dYh2AawBkc9nMY7KLIZKBAYBIsmQqPR3VGe0TZdfSoZ4HkAWwNJfNvCq5FiLXMAAQSZRMpVVU17UfJbkUqp5y+HcAF6A6eZAfjhRoquwCiDrcf4KNv1eoABajuoLgxWQq/Y1kKj1Ock1EjmEPAJEkyVT6Hajufa/JroVGVER1BcEF3GyIgoYBgEiSZCp9O4APyK6DGnY1gG/mspl1sgshsgMDAJEEyVT6XQAekl0HNa0PwPdQ7RHgMkLyNc4BIJLjv2QXQC3pRfVkxn8kU+l3yy6GqB3sASByWTKVXgTgUdl1UNsEgEsBfJU7DJIfsQeAyH28+w8GBcAXANy74wwHIl9hDwCRi5Kp9KEA/iG7DrLdawA+kstmnpVdCFGj2ANA5K7vyi6AHLEHgAeSqfTRsgshahR7AIhckkylxwDYACAiuxZyjA7gzFw2c6XsQojqYQ8AkXs+Djb+QRcGcEUylf6e7EKI6mEAIHLPibILINf8KJlKf012EUSj4RAAkQuSqXQPqt3/Mdm1kGssACfnspkbZBdCVAt7AIjcsRhs/DuNCuCqZCp9pOxCiGphACByB7v/O1MMwF+TqfR82YUQDcchACKHJVPpOIBNABKyayFpXgHw7lw2s152IUSD2ANA5LxDwca/080BsCyZSnfJLoRoEAMAkfMOlV0AecJhAC6RXQTRIAYAIucdIrsA8oxUMpU+RXYRRAADAJEb2ANAQ12UTKVnyS6CiJMAiRyUTKWjAPpR3SGOaNA9AJK5bMaSXQh1LvYAEDnrQLDxp90dBeCbsougzsYAQOSshbILIM/672QqfbDsIqhzMQAQOWuy7ALIsyIAsslUmjtEkhQMAETOGiu7APK0/QF8X3YR1JkYAIicNU52AeR5X0um0rNlF0GdhwGAyFnsAaB6YgDOk10EdR4GACJnMQBQI1LJVPow2UVQZwnJLoAo4Dx/BkBYA7qiAl1RgUREDPl99euWAMSOXy0LEGLHYwKwhAJLAMUKsLFfxaZ+FQZXtrdCAfBzAEfLLoQ6BwMAkbM2unWh7qjAnpNMTOoRNRr02o18V1QgrNlXgxDAlgEVG/oUbOhTsbH/7d9v6FexoU/FtgEF3H6spqOSqfTHctnMzbILoc7AnQCJHJRMpTMAvmLne0ZCwB4TTMyZZGLOJAtzJprYc5KFST3+uPU2zGpvwZtbVbywXsOL6zS8sE7Duu0ckQSwCsCCXDZjyC6Ego89AETOWmvXG+0/3cSJi8p4zzwdmo/bypAGTBtrYdpYC4fPebud6y8pO8PAi+urv761zcf/o63ZF8BZAC6SXQgFH3sAiByUTKXPAPCHdt4jERX4wfEFHLZn590U5stvh4LHXwvhyddDMEzZVTnudQB75bKZ4P+fklTsASBy1ivtvLgnJvDTkwcwf1pntgXdUYFD9jBwyB4GPv3OMgplBY++EsKDL4ax/Pkw9GD+tcwG8FEAN8kuhIKt4/rXiFz2fDsv/vz7Sh3b+NeSiAocta+O//hYAVee3Y9jD9ChyC7KGWnZBVDwMQAQOSiXzbwFIN/Ka3vjAscdqNtcUXBM7rXwnY8W8NFDKrJLcUIymUrPl10EBRsDAJHzXmjlRR8/pIJomHN06nnnXoGcG6HA5tUjRMMxABA5r+kAENaA4w8tO1FL4Dz7po0bGXjLkmQq3S27CAouBgAi5zUdAI49oIJxXbz7r6esK7jz2bDsMpzSC+BU2UVQcDEAEDmvqYmACoCT38G7/0Zcfn8UG/oC/THGYQByTKB/cog8oqkegHfMNTB7gj929ZPppQ0arl8RlV2G0w5MptL7yS6CgokBgMh5TQWAEw7n3X89QgC//HscVmeMknxQdgEUTAwARA7LZTN9ADY18twpvRYO7cAd/5r1l8cjeH5dYCf/DccAQI5gACByx/pGnvShBYHd2MY2A2UFV94fk12Gm96fTKUjsoug4GEAIHJH3QCgAPjQgkBuamOr6x6Nor/UUTGpC8ARsoug4GEAIHJH3QBwyB4Gpo7h5L/RbCsouP6xjrwZ5jAA2Y4BgMgdG+o94biFvPuv5+qHoihWOurufxADANmOAYDIHaP2AHRFBd47j/v+j2Zjn4q/PhH4ZX8jOSSZSk+QXQQFCwMAkTtGDQDH7K8jwsO5R3XNI9GgHv/bCBXAPNlFULAwABC5Y9QhgA9z8l9dK17p+IQ0XXYBFCwMAETuGLEHYM4kE/Onde6tbSO2DCh4c2vHf1xNk10ABUvH/0QRuWTEAHDcAo791/P0Gx1/9w+wB4BsxgBA5I6aQwCaWj35j0ZX5uaIAAMA2YwBgMgFuWymBKB/+OOL5hgYm+iMDe3b0d2xk/93wSEAshUDAJF7tg1/gHf/jemOMSSBPQBkMwYAIvdsH/qHRETgiH3Yt92Iyb3cIRHAWNkFULAwABC5Z5cA8J55OqIh3tk2YkqvhZnjOz4E9MkugIKFAYDIPbsEgA8cwNn/zXjnXh3/97XbEBJROxgAiNyzMwBM6LZwyB7s/m/GUfsxAMgugIKFAYDIPTsDwDH761A68kyb1u0/3cRR+3Z0CNhe/ylEjWMAIHLPzg/wY9n935Jzji518rwJ9gCQrRgAiNzTBwB7TjSx92Ru/duKyb0WvnRMSXYZsjAAkK0YAIjcsx3g3X+7PnZIBae8qyy7DBkYAMhWDABE7tmuAEjuzwDQrjPfX8Ixnff3+IbsAihYGACI3LP9gJmGwU1t2qcA+H8fKeCg2R21kuJ52QVQsDAAELlk/lRT+dCBOo+1s0lIA370qQL2nNgx8ylekF0ABQsDAJFLkvvrPe/r7GVstuuOCvzkpEInbBW8NpfN7HaYFFE7GACIXHLConK8O9qxS9gcM6nXws9PGcCE7kD/3fLun2zHAEDknn1lFxBUM8ZZ+Pkp+SAfrczxf7IdAwCRe+bLLiDIZk+w8L+fHkBPMI8OZg8A2Y4BgMg97AFw2NzJJn568gASwRtqYQ8A2Y4BgMg9U2UX0AnmTzNx7qcKUIN11sJTsgug4GEAIHJPRHYBneLg2QZS7w7MboFrctnMa7KLoOBhACByDwOAi05/TwkHzAjEHgH3yS6AgokBgMgNK09j4+8yVQG+nCzKLsMOy2UXQMHEAEDkjqjsAjrRvtNMLJjp++2CGQDIEQwARO7IA+BObhKcsKgiu4R2bMplM8/JLoKCiQGAyA0LlwpwJrcUh+9pQPPvJx3H/8kx/v2xIPKff8ouoBPFIwLzpvp2MiC7/8kxDABE7lkpu4BO5eNjg9kDQI5hACByDwOAJPtP92UPQD+AJ2UXQcHFAEDknmdlF9CpJnT78rjgB3LZjC+TC/kDAwCRWxYu3QZgvewyOtG4Ll+eDcDuf3IUAwCRu3ioiwTjEr7sAeAEQHIUAwCRu1bJLqATRULw2wmBJQArZBdBwcYAQOQunusuSUSz7716YgIhG9+vhkdz2UxgTjMibwrJLoCow/BMAEnMNkYBVAU4aj8dHzyggr0mm5jQLWAJYO02FY+/GsLSB6PYnLf1ford/+Q4BgAid02RXUCnslocAfjwwgpOPaKMqWN2TRCqAswYZ2HGuAo+uEDHpcujuH6FbUc+MACQ4xgAiNw1VXYBnarZANATE/i3Dxfxnnl63edGQwJfOqYEAHaEgAqAh9p9E6J6GACI3MUeAEmsJoYA9pxo4scnFTC5t7lxgy8dU8KbW1U89FK4yep2cXcum8m38wZEjeAkQCJ3MQBIYlpKQ8+bOd7Cz04ZaLrxH/TFo0vtHj50Y1uvJmoQAwCRW1aepgDYQ3YZncpsYAhg6hgLPz9lAOPb2Dho5ngLH17Y8hHEAsBfW744URMYAIjcMwtAQnYRnUrUadPDGnDuCQVM6ml/06A2AsCKXDbzVtsFEDWAAYDIPfNlF9CpGpkA+MVjithrkj1b78+fZrZ6/gC7/8k1DABE7pknu4BOVW8PgCP21nH8oS3fte9GAfDuvVs6gvgm24ogqoMBgMg97AGQZHth5I+6SAj46gdLtl9z5rimewBezGUzPDGSXMMAQOQe9gBIsjk/8gqA4w8t2zLuP9y0sU2/J+/+yVUMAETu4RJASTaNsE1vV1Tgs+92Zsv9cV1NBwCO/5OrGACI3DNedgGdatMIPQCfOqyCnpgzpwQmmjv1YQO4+x+5jAGAyD0MAJJs6t/9o04BcFzry/XqikeaChY357IZ+8chiEbBAEDkhpWnhQF0yy6jU9WaA7BwtrHbAT92ioebCgDs/ifXMQAQuYN3/xLV6gE4bkH9Q37aEQ2j0QQwAOBOJ2shqoUBgMgdDAASDe8BUAAcuY+zAWBTXmns8AHgtlw2Y/86RKI6GACI3BGTXUAnG94DMGWMha6oM5P/Br28QWv0qez+JykYAIjcsUF2AZ2qrCvIl3e9Gbdry9/RvLyxoQCgA7jF4VKIamIAIHLHBqDhMWGyUa0lgHtNdn7C/csbGvp4vTWXzWx1uhaiWhgAiNywcKkOYIvsMjqRqgCTe3dt8N3oAXilsR6APzpdB9FIGACI3LNWdgGdaNpYC0vP7sfXP1TElB1BYK/JzgaAoq5g7ba6H68D4Pa/JFFIdgFEHeRpAAfKLqIThTTgowdXcNzCCu54OoIZzR/U05RXNqqNjPfclMtmCo4WQjQK9gAQuedx2QV0upAKfHhhBWqjC/Ra1OAKgKudrYJodAwARO55QnYB5I7lz4frPWUzgNtdKIVoRAwARO5hD0AH2Niv4vHX6o6uXpfLZpzdiYioDgYAIrcsXLoFwGuyyyBn3fF0GKL+BAB2/5N0DABE7lohuwByjhDArU/VPQd4DYD7XSiHaFQMAETuWi67AHLOXc+F8ebWuh+r1+SyGW4KRdIxABC5iwEgoIQA/nBvQ0c+sPufPIEBgMhdTwHYJrsIst/Tb2pY31f3I/WpXDbzpBv1ENXDAEDkpoVLLXD8N5AuviveyNP+4HQdRI1iACBy372yCyB7bc6rWLW27uY/ZQBLXSiHqCEMAETu4zyAgFn+fEO7qt+Yy2Z4IBR5BgMAkfseB5CXXQTZ55HVdXf+A4DfO10HUTMYAIjctnCpAeBB2WWQPUq6gidfr9sD8CqAnPPVEDWOAYBIDg4DBMTjr4Wg1z9d+FKu/SevYQAgkoMBICAeWV337t8CcLnzlRA1hwGASI5HAZRkF0Hte7h+ALgtl82scaMWomYwABDJsHBpGcAjssug9ry0QcOm/rofo1z7T57EAEAkD4cBfK6B7v+NAP7qQilETWMAIJLnPtkFUHserr/878pcNqO7UQtRsxgAiOR5CIAhuwhqzfaigufeqrv7H7v/ybMYAIhkWbg0D4AHw/jUipdDEKMv7Hswl80851I5RE1jACCSi8MAPvXIy3W7/7nzH3kaAwCRXAwAPrVyzajd//0ArnWpFKKWMAAQycWjgX1o3Xa13vK/a3LZzIBb9RC1ggGASKaFSzcCWCW7DGrO029w8h/5HwMAkXwcBvCZp94Ydf3/07lshps8kecxABDJxwDgM3V6AHj3T77AAEAkHwOAj/SXFLy2acQAUAGw1MVyiFrGAEAk28KlrwJ4Q3YZ1Jhn3tQwyvL/G3PZzGb3qiFqHQMAkTewF8An1mxm9z8FAwMAkTc8IbsAasymvDLSl14DcKeLpRC1hQGAyBuekV0ANWbjyOv/L8tlM5abtRC1gwGAyBsYAHxiY1/Nj00T7P4nn2EAIPKG1wFw5zgfWN+n1jred1kum+FETvIVBgAiL1i4VADgyXEeISwByzB3f1wAWweUWrMAL3G+KiJ7MQAQecd22QVQldFfghravZ3XTcASu31uvgbgVlcKI7IRAwCRd9TqWiaX6X0lKOG6e/0P9TtO/iM/YgAg8g4GAMnMog6jUEEoERnpKeVhfzYAXOpsVUTOYAAg8o7dB53JNZZhorK1gHB3dMTnCKE8P+yhv+aymbXOVkbkDAYAIu8YZYdZcpIQApVNBQBAqGvEu39YYreJmhc7WBaRoxgAiLyDAUAGAVQ2D8AyTIS6o4Ay4k5/MC08O+SPq8Gd/8jHGACIvIMBwG0CKG8egFkyAEWpBoBRVMxdegB+l8tm+G9GvsUAQOQdbEzctLPxr869DHdHoKgj3/0DQElX3tzx2wqAy5wtkMhZDABE3sEA4JZhjb+iKgj1xOq+LF9Stuz47V9y2cwGByskchwDAJF3MAC4YVjjDwDh3ljdu38AWLNF3brjt9z5j3yPAYDIOxgAnFaj8VfDWt2x/x2M/7k5sR3AC7ls5m6nSiRyS0h2AUS0U1F2AUEmLIHy5gFYZWOXx8Nj6nf979C341fe/VMgMAAQeQfHlB1i6SbKmwcgjF137NViYWixcKNv04PqZk1X2FwekRQMAETesVF2AUFklnSUNxeqR/kN08TdPwCE7/yu2jMw+3/ythVHJBHnABB5B3sAbKb3l1HeNFCz8Q91R6E2d+gP9J4jFgK4LZ/Pj7WpRCJpGACIvIM9AHYRQGVLAfr22tMqFFVBuLepu//q22pjDgDwfgD35/P5qe0VSSQXAwCRd6yXXUAQWLqJ0oZ+GIXKiM8J9TS27G83inrYjt8dAOC6fD7PYVTyLQYAIu94FjwSuC16XwmlDf2w9JEPVlTDGsI9DS37241QQgcO+eN7APyspTci8gAGACKvWLi0BGCl7DL8SBgWShv6ofeVRt9NQQEi4xOtXyc0ad6wh76Wz+dPavkNiSRiACDylkdkF+A3Rr6M4vp+WJWR7/oHhXtiTU/8GyS0bpjRPcfU+NKF+Xx+fEtvSiQRAwCRtzwquwC/sHQT5Y15VLYVa87yH04Nay1N/BtkJA4GlJofmRMB/LTlNyaShAGAyFvYA1CHsAQq24oore+HOWxXvxG12fUPAEb3YaN9+Qv5fP6Iti5A5DIGACJveR5cDjgiI19GaV0fjHy5qde10/UPAGbiQJjxfUd7igLgIq4KID9hACDykoVLBYDLZZfhNWbJQGl9PyrbihBWc2cmVWf9t971L9QulCad2shTFwL415YvROQyBgAi77kEPBkQAGCWDZQ35lHelB91ad+IBrv+W1jyP6g88RQIrdbcv5p+kM/nZ7Z+NSL3MAAQec3CpasB3C67DJnMkoHSxjzKG/ONj/PX0G7Xvz7mGBjdhzfzkm4A57d8QSIXcbyKyJsuAvAh2UW4zSzp0PtKDS3pq6edrn+hdaM88VQYXQe18vJPXXvLHedc8seb5gNYBeCGXDazuaVCiBzEHgAib7oFwBrZRbhBWKI6uW99P8qbBmxp/Nvp+jfj+6Mw83utNv4AgCMOXfBlAF9GdThnVTKV/nTLb0bkEEU0sH6WiCRYedqZAH4nuwynmCUDRqECs6g3tI6/GeExsebv/pUwyuOPhz7maLQ1aWCHs7/7vw+v37TlXUMe+guAc3LZDFd5kCewB4DIqxYu/T2Au2SXYSdhWND7Siiu7UN5Ux5moWJ746/Fw003/lZkBgozvg19zDGwo/EHgAP2mbPPsIc+CeCeZCo9yZYLELWJAYDI284CsE12EW0RAkahgvLGPIrr+qD3lSBMy5FLqWEN0aY2/FGgj0miMOPbsCLTba0lEYtOqPHw/gDuTKbS3DqYpGMAIPKyhUtfBvAxALUPtvcwq2KisrWA4to+VLYU2prN3whFVRCd0AUojd3BC20MitP+BeUJJwKKvfOhhRB4dOVzI315IYDbk6l0w2sLiZzAAEDkdQuX3g/g0wBGPuDeC4SAWdKr2/Su60NpQz+MgUrTG/e0KjI+ASXU2Eea0XUwCjO/BzO+nyO1/HPVS9iweetoTzkMwPXJVJqfwSQNv/mI/GDh0psBHAFgtexShrJ0E3p/GeWNeRTe2o7ypgEY+TIsw5ku/pGEx8SgxcJ1nye0LpQmfw6lKedAaF2O1LJh81ZcsPTPjTz1WAA/dKQIogZwFQCRn6w8rRfArwGcDqD1HW5aJEwLZtmAVTJglnTX7u5Ho8XD1a7/Oozuw1GecDKE1uNYLRs2b8V3f/Hbenf/QwkAH81lM39zrCiiETAAEPnRytP2BvAfAE6Dgxt6WboJq2JWfy0brW3H6yA1rCE2uXvUcX8RGofyxM/ASCxwtJYWGv9BWwAcmstmXnOgLKIRMQAQ+dnK08YBOAbV7uSjAewJINr0+wjAMoY09hUDlm7ZvkTPToqqIDa5Z5RxfwV673tRGf9JCLX1w4Aa0UbjP+iuXDaTtLMmonoYAIiCZuVpPQAmAlgC4PuDDwtLQJgWhGFVfzUtWEb1z5Zh+u74oejErhHH/a3wFJQnnQoztrfjddjQ+A86NZfNZO2oiagRDABEQbXytE8ZytQbjHUvVht8D4zX22XEnf4UFZUxH0Rl3GLbl/bVYmPjDwDrAczPZTPb7Xgzonq4CoAouLYY44+FmZgXqMZ/pJ3+rOgeKMz4DirjP+HHxh8ApgA4z643I6qHAYAouLZa8bkQsz8puw7b1NzpTwmjPOFTKMz4FqzITFfqcKDxH/SlZCp9mN1vSlQLAwBRQFW632VZkSnAuAUQvfNkl9M2RVN32+nPjM9HYeb3oI/5ANz6ONu4ZZtTjT9Q/Z+4mBsEkRv4TUYUUObE4+cNHmwj5n6u4S1yvUhRFUQndu2c8S/UOMqTTkVx2tdghd07W2fr9n5871e/c6rxH3Q4gC86eQEigAGAKLBMdczCnX/omQMx9ViJ1bRBqTb+ari675HRdQgKs34AvedIV8voyw/ge7/6HdZu2OzG5c5LptKT3bgQdS4GAKKAUhRl9tA/izmfBsLO7YLnCAWITuiCGglBaGNQmnI2SlPOhtB6XS1joFDE93/9B6xZu8GtS44F8G9uXYw6EwMAUXDt2jce6oKYc4qkUloTHV9d66/3HInCrO/D6DrE9RpK5Qp++JvL8PKat9y+9Dk8MZCcxABAFFwThz8gph4N9MyVUUvTIuMSUHpnoTj96yhPOhVCjbteQ0XXcW7mcjz/8uuuXxtAL4AzZFyYOgMDAFFACSFqzI5TYO39ec9PCAyP7YE181MozPwuzNg+UmowDBM/vmgpnn7hZSnX3+GdMi9OwcYAQBRcu/UAAAB65kJMOdrlUhqnTT8E+n7nurabXy2mZeFnv78ajz/zgpTrD/HxZCq9p+wiKJgYAIiCKYJqF3JNYu6pELEpLpbTgHA3lAVp6Ht/C1ZYXm1CCPz6smvx8BPPSKthiDiqxz8T2Y4BgCiACoVC7bv/QVocYv+vAWrEpYpGJ6a8D2LRr2COc3dp3251CIELrvozlj/6pNQ6hvlEMpU+TnYRFDw8DIgogIrF4izTNOvOXFPW5qC8+Hs3SqotPg1iny9AjD1AXg1D/O5PN+OWux6QXcZuhBCb+/vyd0NgPwBPAjh3xbIrnpddF/kbewCIAuhff/TrhnaSE9OSwGQJd91KCGL2p2Ad9lPPNP5Lb7zNk40/ACiKMiEajZwI4AAAKQDPLFq85KpFi5fMl1wa+RgDAFHAJFPpMzdv2/4fjT5fzDsLotfFmfZj9oN12E8g9jwJUMPuXXcU1/3tLlz/97tllzEqLaTt8kdUg8CzDALUKgYAogBJptInALjYauL4X6FGIRZ8G+iZ41xhABDqhph3NqyDvgckZjh7rSb8NXc/rrrpdtll1FUulms9rIJBgFrEAEAUEMlU+lgAVwPQLMtq7sVaAtaB/wF0zXKiNIjJ74G16BfVjYjgnT0IbrvvUfzh2ltkl1GXXtFhmqP+mzIIUNMYAIgCIJlKvwPAX1Bd/gez2QAAAOFuWAu+CxGfZl9h8SkQC/4DYt+vAGF39++v555HnsBF2b/ILqMuIQRKpZp3/7UMDQJZBgEaDQMAkc8lU+n9AfwNQPfgY033AAyKjIE46HsQvW22G4oGMft4WIf9DGLcgvbeywEPPv40zr/8OvhhFVSlXIFoYkhnBxXAZ/F2ENjX/srI77gMkMjHkqn0XAD3AthlUD0SDuO6zLmtv7EwobxyDZQ3lgFo8jOidx6seWcBiZmtX99B/3j6eZx34ZUwTVN2KfUJoL8vb0dQsQBcg+rywVXtF0ZBwABA5FNHf+bL+yiK8qCiKLtt+hPSNNxw4XltX0PZ8jiUVRcCxkD9J4cSEHM+CzHtGHhpnH+olatW49zMZajohuxSGlKp6CgVSna+JYMA7cQAhM/cvgAAIABJREFUQOQzixYvmadp2jfjXfEvqKqi1XqOoii48eIf23NBowC8nIW67m6M1BsgJr0bYu7pQGSsPdd0wKrVr+H75/8BpXJFdikNy/cPwBp98l+rGASIAYDIDxYtXhIHcCKAM1VVfV+iOw5VHX0Kz02X/MTWGiyzDGx6DNqrf4JS3lh9MDYZYu/PQ4w/2NZr2e31t9bj2z+7GAOFouxSGmYYBgp5x+u1APwJwI8YBDoPAwCRhy1avORgAGeiOrN7rKoqSHQn6jb+AHDjxT+G4sCxv5awYObfgFZYA3XSOzyzmc9Itmzrw7d+eiE2btkmu5SmFPJFGIZrQxUMAh2IAYDIYxYtXtIL4DOoNvyHDz7eTOMPOBAACgOwVq6AVRiAPm4CMP9AxOJdjoQMuxRLZXzn55fglTVvyS6lKZZpId/fwLwLBy6NahA4d8WyK56TUQC5hwGAyCMWLV5yBKqN/qcBJIZ+TVEVdDXR+IdDGq7L/Lc9jfP6t2DdcRPEAzmg8vZ6dDF5GsxPfwGhhYdDU2tORZDKtCycm7kcTzzzguxSmlYqlFCp6DJLYBDoAAwARBItWrxkIoDTAXwBwP61ntNs4w8A8+bMxM++nW6vuEIe1o1ZiLv/Boyyr4B14KFQz/wGtJ4x7V3PZr+58nrc+cBjsstomhAC+b4Br+xRwCAQYAwARC5btHiJAuBYVO/2j8eO3ftqaaXxB4CPHvNunPXpT7RWoBAQy2+H9ecrgXxfY6/RNIizvonQove2dk2b/emWHK6++Q7ZZbSkUtZRKtq69M8OFoBrUZ0jwCAQEAwARC5ZtHjJDACfB3AGgLon76iaikRX/dn+tXzjCyfjfYsOaX4IYCAP65L/hXjmiaavCQBY9B6oZ/0bFE3ekMBdD/0D519+nbTrt8vBpX92YBAIEAYAIgctWrwkBGAxqnf7H0b1GNe6tJCGRFe85TH8i//7m5g8YXxTY/NizSuwMucBm9a3dM2dZs2B+p+/hBIKtfc+Lfjncy/hh7+5zB+7/NVgGiYG8gXZZTSCQSAAGACIHLBo8ZK5qI7rfw5AU6frhMMhxBPxljfTmzppPH753a8gGokipDXWCIuH74W48jcQ5YYPnRmVst9CqN84F2ih96JVr76xFt/52cUoNH5wjucUCyXocif/NWswCJy7YtkVz8ouhprDAEBkk0WLl0QBfArAWQCOQgtNeCQaQSwebauO973jIHzxsx9HJBxBOFR/jb647w5Yl/9fW9esRXnvB6B+7qu2v28tm7dux7//5AJs3tbgnAUPEkKgvy/f9NELHjE4WfC/Viy74iXZxVBj3O+jIwqYRYuX7Idqo386gAmtvk8sHkUkOuJ8wIbNm7PjEJ5GGpKVK2BdmWn7mrWI++6AmDYLyoc+6cj7DyqUyvjhby7zdeMPoHrn78/GH6iePvgZACctWrzkUlSHBt6UXBPVwQBA1IIdW/OeBOBsAEe2+37xRBzhiD0/jvPnzAIAiHqtyepVsC766ahL/NplXXcZ1MnToRzyTkfe3zRN/OSipXjtzXWOvL+bKmVfdf2PJITqz8TpixYvuQDAj1csu2Kz5JpoBBwCIGrCosVLDkL1bj8FwJaTb6KxKKKx9u/8AaArEcNvz/t3KAoQ0kKIRkYYTli7BuaPvwUM5G257qiiMajf/imU2XvZ/ta/vuxa3P3w47a/r9sMw0TBH5P/mtUH4JcAfrli2RX9souhXTEAENWxaPGSbgCnoNrwv8OJa0RjEURj7Y39A8DB+++Nb539GQCApmqIRWO7P8k0Yf7gX4C31rR9vYaNmwjt3AuAeKL+cxuUvel2XPu3u2x7v2YZugHLpt4TXTdgGv5cudCgLQAuBXDRimVXvCy7GKriEADRCBYtXnI4qt2ZpwDocfJa5VIFhmEinohDVVvfvnew+x8YeQjAeuoxdxt/ANi6CdYtf4J60udtebs77l8htfEHAFXTUCqWbQsBATcewL8B+MaixUv+DuACALeuWHYF70AlYgAgGmLR4iVjUO3ePwuAq2fcmoaJgf4BdPU0v/PfoHlDA0CN3j0hBPQ3XpXygy/uvBk46sPApKltvc8/nn7euuCqPwPViWfSDB7OVMgXGAIap6K6L8ZiAKsXLV5yEYBLVyy7YqvcsjoTAwARdh7EcxaAkzHsIB63qKqKWCLacuOvaSr2mj19559rBYCKXoE1Y3bLNbbF0GFdfznUL3275bdY/fqblfMuuMISQtQY23AfQ0Bb5gL4OYBzFy1ecg2AywHcx14B9zAAUMdatHjJeACnodrwHyCrDkVREIlG2p4IuOeMqYhGdl33LyCg7NiOwDRNGKYBZfbctq7TMkWBWS4D+T6o3b1Nv3z9pq193/rphbppWS0vtXQCQ0Db4qhukf15AK8uWrxkKYAruZ+A8xgAqOMsWrzkKFQb/RMAtD/zrg3hcAjReKytcf9BQ7v/dxLYuR1RxahUH0p0QUycAqXdLX+bYB38TugfOQFi+myoqop4k6/PF4pb0j/4xVbDMCWll9ExBOxKVRUoilr9Vd3xa41trQUAYVmwLAHLsoqWaU0QQnwHwPcWLV7yEIArAFzLIQJnMABQR1i0eMlkAEtQbfj3kVzOzu7+kI375c/ba/cAIISAoiiwLGuXhsk88BCE7rnVtmuPRIQ0GCeeAfM9yZ2PWZYFwzQa3qa4ouv4xnm/6avohicb/0EdGwIUQNM0hEIaNE2DFtJaPcNiZy4U1UCwl2manzUM84Pv/Pjnn7NM634Ad65YdoVhW+0djgGAAmvIsbtnA/gEgPr74jrMru7+WubtOXO3xwbnARjmrp+Z5jGLEbrvDsDBQ3PEmHHQz/w6rDnzdvtaRa80FAAsy8L5l1+L9Zu27OlAibbrpBAQDocQjoZtDbGDFFWBpmpTtJA2ZXArCyHEGkM37nvPCWffUC6VcyuWXbHd9gt3GO4DQIGzaPGS6aiOJ34BDRy76xY7u/uHmzR+LM7/r3/Z7fFoJApN01AsFndbFhi+IgNtxf221wIA1p77oHLWN4Ax40Z8Tjw6+lHHpmnihtvuQfamO5wo0VGWJQIZAlRVRSQaRjgSbvmkSpu8BOAaAH/KZTNPyyzEzxgAKBAWLV6iATgO1S7+xfBQ75YT3f3DHXnYAnzltON3ezwSjkBVVJQqpd2+prz1OqL/8y3bazGPTMI46QyI0OhHEYdDYUTCtXtCDNPA4888jx9fdBUsy5+fUUEKAaqqIBqPIRz2zI/VUFcDOC2Xzfj/L9plnvzXJGrUosVLZqN6p38GgN37wCVysrt/uJ0HAA0jhIBu1d5jXkyfjfIPzkfs8vOhDOQBy4KwrOqwgGVBmAaUcrn6WIOMj5wE4yMnNPZc06gZAHRDx1vrN+L/Lr/Bt40/EJzhgMHvYcl3/KP5LIA8gHNkF+I3DADkO4sWLwkB+Biqd/sfguQNYWpxsru/ltECgGWO3PgoQkApl4AdvRNDqx38vWIYEIUCRGEAGKXH0EwubrjxH6zNtExo6ts9BRW9gkKxiF9deh36B/y/N76fQ0AopCEWj0HVPPfjVcvZyVT68Vw2c4nsQvyEAYB84X0nnTPdssR5qqauBvAVAO1tJ+cQN7r7h4tGwpg1bUrNrw2f/Dec+soL9S8QCkHp7YXS3Q3R1wdR3L1hNt99FPTjT22o3l1eZ74dAMqVMgzTwO+vXYZX3ljb9Ht5laoqCEdCKJcqsktpiMe7+0fzw2Qqnc1lMy6ccBUMvvsXps6STKUPsyzr9+FI+GDLsjDQX9gEYKLsuoZzs7t/uLmzp7fc06C92kAAGKSqUMaOBVQVYsgpguYh74T+mbOBFrqIDdNAOBxGuVKGaZq4bfkK3LdiZdPv41VCCJQKJei6P1auRSJhRONRL3f3j2YKgG8B+C/ZhfiFL/p2qPMkU+k9j/nsV/4O4DFVVQ8WQqA4UIQQwnONfzgcQldPl5TGHwD2rrH8ryGmCfW11U2/TOnthbJjbZaYNQfGkq8CLW5fLIRAqVSCaZpYtfp1XHXj7S29jxeZpomB/oIvGn9FUZDoiiOWiPm18R/0zWQqPU12EX7BAECek0yljwbwhKIoxw0+ViqUYI4yli1LoiuOeFd7J/i1a589ZrT0utCzT0CplFt6rZJIAKEQ9BNPrzvbvx5LWNiyvR/nX349TJ+Nk4+kUq5goN8f4/6hcAjdvV0I+a/Lv5YE2APQMAYA8pRkKp0GcAeAsYOPVcoVT95FKariiQ/NVnsAQo/e2/pF4zGo48ZDTGr/Zks3TPzqD9die/9A2+8l22BPVanYWrBylQLE4jEkuuJ+v+sf7rRkKu3o8d1BIf/TiwhAMpWOALgQ1SV9O1mm5dkPU01r787XDpMmjMWYnq6mX6e+vhrqujfbuLICMWkqRO/Y+k+t4/Lr/47Vr7/V9vvIZpomigMlX9z1a5qKeCLulxn+zepC9Ujvi2UX4nWB/Ncnf0mm0lMB3I1hjT8AFAtF9wtqkNZm17cd9tmjtbv/8CP3tH1tc+6+bb9H7sHHcffDT7T9PrL5qcs/Eo2gq6crqI3/oLNkF+AHgf4OIO9LptJ7AlgB4IjhXyuXyp4c9x8U8kAPwN57Nj/+r2zdBO3FZ9u+tjl3v7Ze/+Krb+CKG5w/kMhJfury3znRLy71AEy3HJpMpQ+TXYTXMQCQNMlUeiyAv6HGDn6mYXp+3bQX7qD2aWH8P/zo8lE39GlIKARzj9YP59vWl8evL7sehoOHETnNT7P8VVVFV0/CE3NWXHS27AK8Tv4nGHWkZCodBnADgJq3kcXi7nvXe4mmqdInToVDGvaYUXsDoJEopSJC/3y07Wubs+cCI+zjX/e1poVfX3Y9tm7vb7sOWSpl3Tdd/qFQCF09iVEPXgqozyRT6eYnyHSQjvuOIM+4BMAxtb5QLldG3b7WC7ww/j9n1rSmhyFCj90H6O33rLTT/X/lX27DC6+sabsGWUrFMkoeD6iDItEIEt2Bm+XfqB5UDwijETAAkOuSqfR3UT2udzeWJVDxeNc/4I0VAHs3OQFQKRURevgeW65ttTgB8N5HnsQd9z9mSw1uE0KgMFBEpez9708AiCdinTLeP5oPyy7AyzpqQIjkS6bSnwFw7khfLxdL8MMR1V7oAdinyQmAoYfuqh780yYxZjysCZObft3La9bi0uv+1vb1ZRBWtfE3fTBnYXCynxe+Rz2APQCjYA8AuSaZSh8J4DLseujcToZu+GJClaIonhhPbWYDIGWgH+EV99lyXXPv5u/++/IF/OoP10I3vN+ADmeZFgbyBV80/pqmoauni43/22YkU+kFsovwKvmfYtQRkqn0GAB/BDBin6QfllIB1QmAso0b04MJY3sbfn74wZwtY/8AYO7V3Pi/aVn4v8uvx+ZtfbZc302GYWDAJ0f5hsMhdHUnpG5L7VEcBhiB/E8y6hTnA5g10hcr5YovPmQBQPXA+H8zy/+Uvm0I/eNBey6saTDn7NPUS66+6U48+9Jr9lzfRXpFRyFf9MWQVDgSRrwrPkLfWsdjABgBAwA5LplKfxzAkhGfIKoz//3CCz0AezdxAFD4/tsB056hFXPWXk0t/3vgH0/j7/c+Ysu13VQulVEs+GSmfySMeCImuwwvO5JnA9Qm/5OMAi2ZSk8E8NvRnlOpVCAs799lDfLC+H+jPQDK1k22rPsf1Mzs//WbtuAP1y6z7dpuKQ4UPb8J1aBINIIYG/96wgCOlV2EF8n/JKOguwjAqLvV+OnuH5C/A6CmqZgzq7FT+MLLbwNsHFppdP2/aVrIXPkXlHz0byuEwEDeHzv7AUA0FuEyv8a9V3YBXsRlgOSYHUv+ThztOZWy7ru7f9mbqsyePgWRBrZ0VTeuQ+iZx227rugdC2vS1Iaee93f7/HVCX+WZaGQL/pmHko0FkU01tpOjB3qINkFeBEDADkimUpPA5Cp97xK2R8z/wfJvvsHGu/+Dy+/tf09/4do9PS/Z198FTfnbJp06ALTMFEY8MdkPwCIxaOIRNn4N+lg2QV4kfxPMwqqCwGMH+0JlYoOy0d3/4A3JgA2sgGQuvYNaKtW2nrdRrr/8wNFXHjVjb5pTPWKjoF8wTf1xhIxNv6tGZ9MpVs7OzvA5H+aUeAkU+mjARxf73l+2PJ3OFWVvwSwkS2Aw/favOOeqsGaM6/u0357zc3Y4pNDfsqlim9m+gPVrX0jkbDsMvyMvQDDMACQrZKptALgF/WeZ+iGb8Zbh5LdA9DbncCUieNGfY665hVoq1fZel1r5p4QkdEnnOUefByPPfW8rdd1SrFQQrnkn+GneCKOMBv/dnEewDCcA0B2Ox3AIfWepOu6C6XYT/YcgLkNrP+P3GP/fvvm3qN3/7+5fhOW/uU2269rNyEEigNFGD7akjgWjyIc4Ue1DdgDMAy/q8g2yVQ6AeC8es8TQvhmqdVQsu/+AWBenQmA2isvQH19te3XHW0CoG6YyFz5Z1Q8/m9qWRYKA0XPHzU9VCQa5pi/fdgDMIz8TzQKkm8CqHuLqusG4I85V7vwwhbA9Q4ACjtw9y96emFNnj7i16+5OYfX3lxv+3XtZJpmdU9/HzX+oXAIsTg3+bHR3slUult2EV7CAEC22LHs7/818ly94tPuf8k7ACqKgrmzR26ItReehvrW67Zfd7TDf/753GrcutzbW/0aulHd099HK040TeP2vvZTABwouwgv4RAA2eVcAF31nmRZFkwfjb8OJXsIYObUSYiN2B0sEL73745cd6Tu/778AC6++iY7txqwXaVc8c0pk4NUVUWiKy59w6mAGjlBdyAGAGpbMpVeCODzjTzXr3f/gPwJgKNtABR6+nGoG9baf1FVrbn8Twjg4uxfsb1/wP5r2qRULKPio62IgWovT6IrDoVH+jplkuwCvIQBgOzwczQ4nOTXAKAoivQhgBE3ADJ0hO925tAda8YeELH4bo/ftvxRPPncS45c0w7FQsmX32vxrrj0oBlwE2UX4CUMANSWZCr9EQAfaOS5pmH6bue/QV74UB5pAmD44buh9G1z5Jq1dv977c31+OPNdzpyPTsUB4q+XGUST8QQCsmfaBpw7AEYggGAWpZMpTUAP2v0+X5aez2cJvnuPxGPYfrk3W9elP4+hB+8y7HrDh//r+gGMlf+GboH/y2ra/xLMAz/Nf7RWJQb/biDAWAIBgBqx1kA9m/0yX6d/AfIXwK49x7TUWtOWPieZYDuzDi36OqBNXXXYYerbrwdb67f5Mj12iGEQGGg6MvvsXAkzJP93MMAMAQDALUkmUr3APhhM68xTf99OA+SvQKg1gRAdd0bCD31mGPXrN79v506Hnvqedz5wD8cu16rhCUwMOCvNf6DVFVBLD76FstkKwaAIRgAqFXfATC50SebpuWbE9dqkT0HoNYBQJE7brL1uN/hhnb/b9nej99ec7Nj12qVZVko5Iu+PFcCAGIJLvdzGQPAEAwA1LRkKj0LwNebeY3pw3HZQYqqSP2QVhRg72FnAGjPP+XIlr9DL2rNmQ+g2r1+0VU3Ij9QdO56LbBMCwMDBV9t8DNUJBrhpD/3cRXAEPKnNpMffQdAU9uU+XFsdpAm+QjgqZMmoGvornCmiUjur45e05q+B0Q8AQC45a6H8MyLrzp6vWaZRnVrX782/qqmIhZj178E0R3DlwQGAGpSMpWeAeCMZl9n+Hj8X3b3//Dx//Bj90HZutnRaw52/7+8Zi2u/dvdjl6rWYZhoDBQ9PWQUjwRGzq9gtw1VnYBXsEhAGrWtwA0detiWZZv79QAb00AVAoDCN1/h+PXNOfuC8M0ccnVf4Xpocl1um6g6LGhiGZFY1FoHjhYqoP5a3tIB7EHgBqWTKWnorr0ryl+7v4HAEXyHgBDx//Dy2+FUnK2ARSJbljTZuGmO+7HmrUbHL1WMyoV3feNv6ZpXPInX0l2AV7BHgBqxr8B2H1f2Dq8dAfZClXivuzRSBizplUXW6ib1iP0xEOOX9Pcaz7WrNuIG++43/FrNapS1lEq+vxzWwHiXTzhzwP8dTqUgxgAqCHJVHoSgC+18lo/j9UCco8Bnjt7+s4AEr7zr4ALy92Mvebjt3+82TPBzY8n+tUSi0WlnydBABgAduJ3IzXqmwASrbzQzwFA9qlsg/v/ay+vgrb6OecvqCi4Ze0AVr/+lvPXakBQGv9QSENkxKOcyUWVXDbj3w8kmzEAUF3JVHo8gK+0+no/TwCUfce2z54zAWFV7/5d8Ob4Gbj2jgdduVY9QWn8FUVBLNH0yBk5w+fjSPbiEAA14usAult9sZ97AOQHgBkIPf4w1I3rHL+WAHDhZhUVD5ykVy5XUA5A4w9UN/yROY+EdsEAMAQDAI0qmUqPBfDVdt7D3wFA3gf3pAljMSasIbz8Vleud3spimf6+1251mjKpQrKpWA0/oqqIMqufy8JxjeWTTgEQPV8GUBvqy8WQvg6AMhcArjPHjMRuv8OKIW849fabKm4YqClKR62ClLjD1Qn/nHDH09hD8AQDAA0omQqrQE4p5338HPjD8jtAdhnyliEVyx35VoX9SdQkDzpv1wqB6rxVzUV4UhYdhm0q+B8g9mAAYBG81EAs9t5A/8HAHk/IvuvfRFwYQvl5eUIHqvIbaiqjX+wNmjjXv+exB6AIRgAaDRfbvcN/LwCAJAXAMIhDXu/ucrx6/RZCn6fl9v1H8TGXwtpCIU5xcqD1souwEv4HUo1JVPpfQB8oN338XMPgMw9AOZGADd2i/9dPoE+S97/Z6lYRqUcrMYfACf+eZfzqdpH2ANAI/kSOnz6kszu/31EwfFrPFoJ476yvIYqqI2/qqm8+/cuBoAhGABoN8lUOgHg87LrkE1mAJiqOTv2XxAKLu6X1/VfLgWz8Qd49+9xDABDMABQLZ8Bz8yWugJgourslPzL83FsseT8+FfKlcCN+Q9SFIUz/73tedkFeAkDANXS8ra/QaIoEgOA5lwAWKmHcHtJzgx1vaIHYnvfkXC/f0/blMtmNssuwksYAGgXyVT6XQAOkV2HF8gMAJMc6gEoCwUX9Hc58t716LqBYiHAq7AUIBLl3b+Hsft/GAYAGo53/zvIWgUQUQR6VWdWT2QHYlhvuv9jbxgGigNF16/rpnAoJDU0Ul0MAMMwANBOyVR6IoCTZNfhFbI+zCc41Pi/oIdwczHmyHuPxjRMFAcCfOe/A8f+PY8BYBgGABrqJADcvmwHWQHAie5/AeCifAJu78pgmRYKA0Vf7wfRCEVRuPTP+xgAhmEAoKHa3vgnSGQFACcmAN5ZiuIVw42thd5mWRYGBgqBb/wBsPH3BwaAYRgACMDOg3+Oll2Hl0gLADb3ABSEgqsG4ra+Zz3CEijki77fCrpR4QgDgMeVAbwiuwivYQCgQYeBa/93krkNsN09ANcWYtju4na/QggMDBRgWZKPF3SJoigIhRgAPO7pXDbTGd+QTWAAoEHs/h9C6h4ANvYAvGWquKXg3sQ/IQQKA0VYZud81rL73xfulV2AFzEA0KBjZRfgJWpAAsBl+QQM296tvuJACabh/BHGXhIKuTu3glqyXHYBXsQAQIN7/x8huw4vCcIugE9WwlhRcW9pWrFQgmG4GTe8QWMA8DoB4D7ZRXgRAwABwPsAcA/TIWQFgIQikFDanzhnAbjUxYl/lXIFekV37XpeoSiK1EOjqCFP57KZLbKL8CJ+5xLA8f/dyJoEaNfd/63FKF53admfYZiB3t9/NOz+9wWO/4+AAYAABoDdyOoBGGvDLoAloeCagjt3/5ZlBX6L39Gw+98XOP4/AgaADpdMpecCWCC7Dq+RFQB6lfZ7AJYVo+hzYdmfEALFDtjlbzQMAL7AADACBgA6UXYBXiQtALTZA1ASCm5yab//UqEEs4OW+9WiKvwI9bjnc9nMetlFeBW/e+kE2QV4kawA0NPmBEC37v7LpQp0vfNm/O+Gh/95Hcf/R8EA0MGSqfQeABbJrsOTJH2w97axB4Bbd/+GbqBc6sxJf8Px+F/Pe0Z2AV7GANDZvi67ANpVO0MAbtz9W6aFYiH4R/s2IhQKdfb4hz+cIrsAL2MA6FDJVHoagHNk10G7anUIwI27/8Ftfjt50t9QsXiUn5/e94TsAryM38Cd6zsA3Nsk3nckzQFocQjAjbv/4kCpYw74qSccCUPV+PHpA8tkF+Bl/A7uQMlUegaAs2XXQbtrZQjABHBLMWp/MUOUy5WO3Oa3FkVREIs7+/dNtqgAuFt2EV7GANCZ/hMAP8FGIWtqV28LQwCPV8LYajn3o2xZFif9DRGNRTj5zx+W57KZzt2lqgEMAB0mmUofCt79e1JEEYi2EADuLDmb5YqFUvU4FYKqqohEeWyGT/xFdgFexwDQQZKptArgIvDf3ZNamQC4zVLxWNm5E/8qFb3jjvcdDbv+fYXj/3WwIegsZwN4h+wifEFCD28r4/93lyJwqnkWlkC5Qw/5qSUUCiEUDskugxrzSi6beU12EV7HANAhkqn0ZAA/ll0HjayVTYByJee6o4vFEpf8DcG7f1+5XnYBfsAA0Dl+BmCs7CJoZM1OAFylh/CG6cxhNLpuwOBWvztFohEu+/OXW2QX4Af8ju4AyVT6/QBOl10Hja6nySGAOx26+xdCoFTkbn+DFEVBNMaJfz5SAPCg7CL8gAEg4JKpdBjAhbLroPqa6QEoCQX3l51plErFMoTFrv9B0XiUy/78JZfLZth91QAGgOD7BoD9ZRfhP+5/4DezC+D95QhKwv4aDcOEXtFtf1+/0jQVkYhzqyzIEdfJLsAvGAACLJlKzwbwX7Lr8CMZ93vNrAJwovtfCIESD/rZRSzO3bJ9RgD4u+wi/IIBINj+D0BCdhHUmEb3AXjD1LBKt385WrlU4V7/Q4TDIWghZyZZkmNW5bKZTbKL8AsGgIBKptIfA/AJ2XX4lZCw9V2jywAzvPsOAAAgAElEQVSdWPpnmiYq5Yrt7+tbSnXsn3znWtkF+AkDQADtmPj3C9l1+JmM9e+NDAGYqG7+Y7dSgRv+DBWNRqCq/Hj0oZtkF+An/A4PprMB7CO7CD+TMQu+kVUAj5XD2GbzwT96xYBpcrvfQaqqcL9/f9oO4EnZRfgJA0DAJFPpHnDiX9vc7gGIKAKRBgKAEwf/8KS/XUVjMS7786e/5bIZrl9tAgNA8HwLwGTZRfid2yMA3Q00/lstFY9X7F2SVilz4t9QWkhDOML9/n2K4/9NYgAIkGQqPR3Vdf/UJrd7ABINBAC7D/4RQqBc4sS/objsz7dMAHfKLsJvGACC5Yfgsj9buB0AuhqYAGj32v9yqcLDfoaIRMLQuN+/Xz2Sy2bysovwG363B0QylZ4KYInsOoLCaz0Az+ohvGXjwT+WZXHZ3xCKonDZn79x978WcLArOM4BwD1LbeL2uHi9AGD35L9ykRP/horGIlAUBdPGWjjlnWVMH2dhTFxgTFzAsIAX1mnI3BnH5jwnB3rUMtkF+BEDQADsWPd/juw6gsTtANA1SgAoCgUPlu3LdqZhQudRvzupqopJY8M49YgSPn5IGbU2/5s6xsKs8RbOvLTb/QKpntdz2cyLsovwIwaAYPgUgGmyiwgSYYnqruIu3fAlRpkDYPfBPyUu+9spGgaWHK0idUQ/EtHRe2FmjONeCR71Z9kF+BUDQDCkZRcQRJZlQXVpUthoQwB2Tv7TdQOmwYZMVYCPHibwxQ8Ak3obmwvx1jaeC+BR7P5vEQOAzyVT6QMAvEd2HUHkZgAYaQhgjanheRsP/uHYP/CefQX+5TiBvaY097rrV3B3QA8qAFguuwi/YgDwv8/LLiCo3JwHMFIPwJ1F+xqdTt/0Z/+ZwFc/LHDYXs2t8BBC4LFXw7j1KQYAD7ohl81wOUuLGAB8bMfkv9Nk1xFUlovnAdQKABaAe8r2zP7v5E1/powB/vUjAscuEGhmh1+rYsAs6bCicSx7MoKFswyYloLn12rQOYriFdfILsDPGAD8bTG47a9jLNO9u+VaGwE9XQlhu2XP5L9O3fRnrylA5gwLk3obf42lmzAKFYRiYYR74wCAH3yysPPr+bKC5avCyD4Uxbrt3EpFoj4At8suws/43etvZ8guIMhMy73bvFo9AA+U7ely7tRNfxbMBn539iiNvwCEYUGY1f+sigl9WxGVrQWEu2NQo7Xvj7qjAh85qIL//fQAxiY6L1R5yJ9y2QzXs7aBAcCnduz892HZdQSZsIRrd83DA4AF4KGKPQGgEyf+vXuewAVfsNA7fGNsAVhlA5VtRRTX96G0vh+lddX/KlsGoIQ1xCb3QNHq97zMGGfhvBMHEA0zBEhytewC/I5DAP51Ovjv5zjLtKDV2hnGZsMDwFOVMPps6P43zc7b9OcDCwV+dLJ4e0MfAZgVA2ZRh1nQoUY1RMbEERkbb/ta+04z8b55Bu54hptwumwzOPu/bWxA/Ivd/y4wXQoAw+cAPGDTzn+dNvHvxHcJ/PvHBVQI6P0VGPkyhCWghlVosQiik7uhhuzt+NQ7d2GFTFflshn+zbeJAcCHkqn0mQDmy66jE1iWCaePWIgoAkMjhgXgYRu6/03ThNFBd/9nJgXOObYapCpbirB0E6HuCELxCBSbG/1Bdz4Txr2rePcvAbv/bcAA4DPJVPogAL+RXUenMF1YCTB8E6CVNnX/l4udcfevKMA3Pyrw6SOqf4/CtBDqjkCNOPfxppvABbk4bn6CewO4TQhR6N+eXyG7jiBgAPCRZCrdg+qxlzHZtXQKN5YCDh//t+PgH9MwYRjBv/sPacD3TxQ47mABYQkoigJFVaE4tIOjEMCDL4Vx5f1RvLSBWwPLYBrmIyuWXcGZlzZgAPCX3wPYR3YRnUSIHQ2L6typQEMDgAl7Zv93woE/sTDwk5TAkfMErLIBNaK1fXiTEKI6WbBkAEM2grKiUdz+YhzXr4jhrW1cPCWVonxfdglBwQDgE8lU+isATpZdRycyTRMh1bkflaETAJ+qhNHfZve/YZiBP/CnJwb86nMWDpotYBnWiGv2GyGsHY1+sQJAgRYPIxR7+/10U0Hm7gRufa79VQPUHssS2+/900X3ya4jKBgAfCCZSh8O4Jey6+hUTu+fP7QHwI7Z/+WA3/1P7AF+c4aFuZOr5zWr4ea74o1CBUI3YekmLN1CKBFBZGyi5mRBDcBXjtPx5Fvc+U86IZbKLiFI+N3scclUeiyAawFwtpEkTk8EHAwAJtqf/W8E/LjfmROAP3zRxJwxOgDRdJe/VTZQWt+PytYiLMNCqCuK+LQehMfERl0pkIgIHLewMyZVepmqqefLriFI2APgfZcDmCO7iE7m9ETAwVUAdnT/B3nd/15TgIvOMDGuS0DRmuwpEQL69hLMsoFQTwxaLNT0vI6K4dw8EKpPCLHqrqsveEl2HUHCAOBhyVT6ywA+IbuOTuf0mQCJHXMA7m+z+9/QDZhmMO/+Z00ALjzDwrguND3D36qYqGwtQIuHEZvc0/JEwb4iA4BMiqL8RHYNQcMA4FHJVHpfAD+XXQehun+8ZUFVnRkxSyii2v3f5uE/QR37nzIGuPBMCxN6gaZabyGg95VglgxExiWqqwRaVCgruP8FbvgjUQXVoVCyEQOAByVT6TCALABOO/YI03QuAHQpAisrYeRF63eYum64smmR2xLR6oS/qWObe51VMWHkS9DiEYTHtP9j9MeHo9hWYA+ALEKIpXddfUFRdh1BwwDgTT8EcKjsIuhtlmk5tiNwQhFtz/4P4t2/ogA/OllgzuQmXiQAs6gDKhAZ32VLHWu3qbjhMc7BlUlRlAtk1xBEDAAek0yl3wvg/8mug3bl5Nh6VGmv+1+v6K7sWOi2s5MC79+/iQ3fBCBME1rCpoOUdAXXPhrBnx6NoswJgPIIrM5dnXlCdhlBxADgIclUuhfAleDyTM9xcmndGlNrq/s/iDP/jz5A4AvHNNb4C9MCFAWKqkCx4eRGIYDbno7g0uVRbM7zR1E6hXOhnMIA4C0ZAHvKLoJ2J4RwbCLgM3rrP4Z6RXd8oyK3zZ0C/OBkAaVOJhKWgDBMKCHNtq2a//FqCBffFcPLG7nPv0cY4Ml/jmEA8IhkKn0ygNNk10EjMw0LasT+APBUpfUfwyDe/f/nCRYSdUZEhCUAAdtO/Htlo4ZL7olhxcv8SPSYa3PZTJ/sIoKK3+0ekEylZwC4WHYdNDrTNBF24Eem0GL3fyWAd/9Hzhc4cNbozxGmZdtpf1sGFFx2Xwy3rowMPfuHvONC2QUEGQOAZMlUWgFwBYBxsmuh0Xltk51KAO/+zzl2lFZYCJhlE1qs/Y+twQl+1zwSRUnnBD+PejWXzTwgu4ggYwCQ72sAkrKLoPq8FACCOPb/vv0E9ps58tct3Wq78RcCuPWpCC67jxP8fOA3sgsIOgYAiZKp9AIAP5ZdBzVIVEOApsmfIBa0sX9FAc4e7e4faGsnP4AT/HzGQHVFFDmIAUCSZCodRXW3v6jsWqhxpmFJDwBBvPt///4C86c7896c4OdLN+aymU2yiwg6/kTI8z8AFsgugppTHQaQuyd8uRy8u/9Rx/4bIQSGrxvcnFdw+f2c4OdT7P53AQOABMlU+hgAX5ddBzVP9jwAQzcCt+tf8kCBvae29lpLN2EUKrBKBqITu6BoKixLwQW5KG59KsIJfv70ZC6bWS67iE7AAOCyZCrdA+BStHwoKclkmRaEEFDq7VLjkKCN/asKcFay+dtzy7Bg9JVgFKp/H4qqQFgCigaoqsC2gsrG37/+V3YBnYLTYN33CwB7yC6CWifr1D1DN6T3QNjtiPkCe01p/PmWbqK8pYDSuj4YhQoUVUG4N4bY1F6o4bfnZnzkoGAFpQ6yHsB1sovoFOwBcFEylf4QgLNk10HtMf9/e/ceJFlV3wH8e7tvT8/sexcWeUh4iKCAiA/EEBW1S0EsNEYtox3zsDQVy06qrErKPEyqEkl8g8bxAWhphwyCEiOaXlGZXZAF2W157Cq7C+wquy4IsgvjTvd9n3PyR8+je6Z7+nW7z723v58qaqab2Z5fTc30/Z7fueecQMAMYc/5biVt7h8A/ujizr5OBRLeMRvC8gHURvzmmizMNdmm2wCfuTlZQWmEfHp6ajLQXcSoYAAYkly+sB7AV3XXQf3TMQoPAjHQA4l0OGlDbee/lSilEMy68GcdQM1d+NdmYa5ufuGfN+uw/R9DDoDrdRcxShgAhudzAFbY5oTiQkcA8Bx36N9z0N72CoVW13AZCAQVD6Lq1e65SBkw12WRWZNddrd/Mw8/ybX+MXQd9/0fLgaAIcjlC28G8Oe666BwKKkgpUIqpBPo2hGBQJCw0b+ZBt560fLRv/QF/GMOhL3Y6s+sG+/4wi8V8K0dWXxj+3joNdNAKQBX6y5i1DAADFguX9gItrUSRwiBVGo4fz5JnPt/+ZkKm9Y0PhdUPXjPWgAWW/2dXvgB4PAzKXyytAp7nuDoP4b+b3pq8qDuIkYNA8Dg/SeAk3QXQeESQYBMZvB/PkJIBH7y7ol65dmNj6UbwJuxaw8MIHv86o6P+lUAvvOzLL52ZxZuwLn/mLpKdwGjiAFggHL5wh8C+BPddVD4htWST+LcPwBccvZi+196Au6RKqAU0uMmxjatXvEGv3q/mUnhU1smsPvXfCuLsfumpyZ36i5iFPGvZkBy+cJxAL6iuw4aDClkbeOZAd4HIIWEn8DR/6Y1wBkn1D5XQsI9UoFStUCQWTve8c/0+w+M4do7xmF7HPXHHEf/mjAADM4XAXSxxQnFTRAIZDpsU/ciiXP/AHDucxdH/0HFhZrbqD+VSSOVbf/zfPpYCp/+wQTue4xvXwlwCMD3dBcxqvgXNAC5fOEdAN6lu46kyWRMZMYyUKp2F75SsvZRKkglFy4kwyKCYGABQEoJ3/MH8tq6nVe3GFY4tQ6HkU4he/zqtv92294MrvnhBKouR/0J8cnpqclkHW4RIwwAIcvlC5sBfEl3HVEx39rtl2EYGF813nYP/vow0BASlIKSi5+HYZD3ASRtz/96551a90CphZv+jHTrncndwMDk7ePYsmts8AXSsDyF2rkopAkDQPi+DGCz7iKiIqx98zu5+AO15WNppIE2K8GknAsJc8Gg/vPax/ZBYf41wr4PQEqV2NE/0DgFAACZdeMN+/gv9diRND526wQeO8LlfQnzL9NTk47uIkYZA0CIcvnCuwG8XXcdUdJs+9rNaxVmLAN+hwNoM2OGvuQulUoBqZVzglLznQNVu9jPTz3UhYQgCJAZy4Ram5fQuX8AOPM5wPpVi49TYyYya1tv2rNl1xgmbx/n8r7kOQSO/rVjAAhJLl84EcCk7jqiZP7CuW6VwiueB7zybIWLzwJO3ABIpfDU74DDR4HDRw3sOQzc/nOgsmQPd8MwMLFKz65uhmHUug4p1LoKQ6BUdEb/yzouBmDUn2Jt1H8wWj5eeM4AXne+BLDYFcpsmGj6vS3XwNU/nMC2veGGK4qMv+ehP/oxAITnWgCbdBcRJYEQeO9rFD50mcLS6d2UUTsM5qQNwEXPU3jbK4C/uxK4cy9QesDAvY8AQgLjE9mOWv9JIYXEWHZsyeZ3xtLr6cLueEbdl9Rdehuea3xc91zDBXrpNxiM15xbaXjcbPrk4SfTuOrWVXhihqeVJ9SjAG7SXQQBRlg3RI2yXL7wXgD/pbuOKFk1Bvzt5bO49IW93QPwTAW4bmsGP967qv0XUyyYaeDDl9ktDwACgCdmUvjmvVkk7OgDavSW6anJ7+sughgA+pbLF04G8BCADbpriYrnbpK46u1VnLqp9xsAq66B931tDY7MchRIlCAPTU9Nnq+7CKrhu2v/rgcv/g0+coXV18UfAL68dZwXf6Lk+WvdBdAivsP2IZcvvA/AFbrriJLXvsDHuaf017/d/1Qat+3mem+ihLl/empym+4iaBEDQI9y+cKpAK7RXUeUZEzgA6/tf1nvV7aNgxNTRInzQd0FUCOuAujdVwGs011ElLztpS5OXN9f63/HARMPHOSvJVGSKKXu3XrjF3niX8SwA9CDXL7wlwDeqLuOqLnywv42sJEKuPaO5uvCiSi+DMN4v+4aaDkOtbqUyxdOA/AZ3XVEzYnrJU7e2N/of8uuMRw8wkxKlCRKqdu23vjFh3TXQcvx3bYLuXzBQG37yrW6a4mal5/R36ZetmeguF3Pjn9ENDDSMIwP6C6CmmMHoDtvBfB63UVE0ctO7y8A3Lwzi2eqo7PjH9EoEEJ+9o6bvnRYdx3UHDsA3fkL3QVEkWEALzmt9wBwtJLCt3Zy2R9RkkgpZ9Pp1D/oroNaYwegQ7l84QQAb9JdRxSdc2KAteO9L9yb+mkWrs/RP1GSBH7wobtuuY6bOkcYOwCdywPg0WRNvKyP+f8Zy8Btu/ljJUoS3/MP3XXLdTforoNWxgDQuT/VXUBUXXhq7yH/u/dledY7UYJIqeC5HqdLY4ABoAO5fOFEABfqriOqztjc2/I/xzfw3fs590+UJK7j7r73e1/fqrsOao8BoDOv011AVK2bUNi4urcAUNo1hlmHo3+ipAj8AL7n/43uOqgzDACd4dK/Fk4/vrf2fyCBb5c5+idKCqUUHNvdWS4V79RdC3WGAaAzDAAt9Nr+37pnDE8f468fUVK4jgcp5T/proM6x3fgNnL5wukAztRdR1Sddlz3HQAF4OYdHP0TJYUQAp7r7SiXirfrroU6xwDQHkf/K+hlCmDnAROPHUkPoBoi0sGxXAD4N911UHcYANp7je4Couz0HqYASrs4+idKCtdxIYS4v1wqbtFdC3WHAaA9Lv9rYXVWYf1EdzsAzlgG7j3AjX+IkiDwA7iOBwAf010LdY8BYAW5fCED4IW664iqjau73/73R78Yg+jv1GAiigApJWzLAYCfA7hVcznUAwaAlb0AAPvVLWxY1X0A+MFu/jiJksCuOlBKAcBV5VKx98NASBsGgJVdoLuAKNvYZQDY83gah47yV44o7hzbgRACAPYBuEVzOdQjvhuvjAFgBd3uALiFo3+i2PM9H57rzz/893KpyEm9mGIAWBkDwAq6mQJwfAN37OPNf0RxJoWEY7vzD/cD+KbGcqhPDAArYwBYQTcdgDv3ZWB73PefKK6UUrCq9vy8PwB8vFwq9n4UKGnHANBCLl84DsDJuuuIsm46ANs4+ieKNcdyIOVC6H8MwA36qqEwMAC0xtF/G+s7DACWa+CBg+aAqyGiQfFcD74f1D/1iXKp6Lf6eooHBoDWGADayKQ7CwA7fmkiYKOQKJaCQNTP+wPAYQBf11QOhYgBoDUGgDYyHW7nv/0Rtv+J4kgICbtqL336U+VS0dNRD4WLAaA1BoA2OukA+ALY+Uu2/4niRkoJq2LV3/QHAE8CuF5TSRQyBoAmcvlCGsB5uuuIuky6/V399z9mwuLd/0SxoqSCVbGXXvwB4DPlUtHRUROFjwGgubMATOguIurMVPtlgNsfZfufKE6UUqhWrfo7/ucdAfAVDSXRgDAANMf2fwfa3QOgFHAPAwBRbMyv9ZfNT+y6ulwqVoddEw0OA0BzDAAdaBcA9v82jRmL7X+iuLAtB6L5kp1nAUwOuRwaMAaA5hgAOmC2uQnwQa79J4oN23IQNK71r/f5cqk4O8x6aPAYAJo7X3cBcfBX31iNb91r4liLUf6DhxgAiOLAsV34Xst9fY4B+PwQy6Eh4Tt0c6foLiAODj9r4to7TXz9buBVz3dx5YUeLvi92tyhVMDuwx1uFEBE2riOB89dcVn/F8ql4syw6qHhYQBYIpcvbAKQ1V1HnHgBsHVvFlv3ZnHacQJvusDFb3+nYLmc/yeKMs/z4TruSl9SBXDNkMqhIWMAWI4HAPXh4NE0PrelNvIf50JKosjyPR+O1XZJ/5fKpeLRYdRDw8cAsNxJuguIP4VMhsv/iKLKc304dtuLvw3gs0MohzRhAFiOHYA+SamQNjn/TxRFnustPdynlevLpeJTg66H9GEAWI4dgD5IKZvtIEZEEeA6Xrs5/3k+gM8MuBzSjAFgOQaAPniOh1SKq0uJosZ1XLhOx4f43VAuFX89yHpIP75TL8cpgD4IIZBO89eKKEocu6uLvwTwiQGWQxHBd+rl2AHogxASqTTn/4miwrGcduv8l7qlXCo+Oqh6KDo4BbAcOwA9mj9AhB0AomiwLWelHf5a+fggaqHoYQBYjh2AHom5m/94DwCRfnbVht96b/9WtpRLxQcHUQ9FDwNAnVy+sAHAuO464koKiRRH/0R6KcCy7JUO9lnJf4RdDkUXA0Ajtv/7IIVAmqN/Im2UUrCqdqsjfdv5SblUvDvsmii6GAAasf3fB6XADYCINJFSwqrY/ezD8YUw66HoYwBoxA5AnzgFQDR8IhCwqjaUUr2+xNMAvhdiSRQDDACN2AHoE1cAEA2X7/mw2x/q084N5VKxq7WCFH8MAI0YAPrEFQBEw9PF1r7tfC2MF6F4YQBoxCmAPvDiTzQ8Pa7xb+aecqm4J4wXonhhAGjEDkAfUilDdwlEiaeUgl11EAQ9LfNrhqP/EcUA0IgdgD4YDABEAyWlgl21IERoJ27OArg5rBejeGEAaLRedwGxZjAAEA2KCAQsy4aSPd/p38xN5VKxGuYLUnwwADTK6i4gznj5JxoMz/Ph9H+nfzNs/48wBoBGY7oLiDODHQCi0IV4s99Sh8ql4o5BvDDFAwNAIwaAHkkp2QIgClFtvt+GED1t69uJWwf1whQPDABzcvlCBryE9SzwA5gZ/joRhSGEnf06wQAw4rhwexHn//sQBIJTAEQh8FwP1Yo16Iv/DICfDPIbUPRxyLaI7f8+KKkYAIj6oQDbHth8/1JbyqXiUL4RRRcDwCJ2APrAiz9R76SQsC07zPX97bD9TwwAddgB6AMDAFFvPNeH4zjAQDv+jd8SwG1D+24UWQwAixgA+sDrP1F3lFKwLQeBH9qWvp3aVi4Vjw37m1L0MAAs4lGY/WACIOpYEASwLSfsXf06xfY/AWAAqFfRXUCccQqAqDOO7cJztY43fqzzm1N0MAAsYgAgooHRcKNfM0+XS8X9Ogug6OA+AHOmpyZdAEOfjCOi5PM8H9VKqKf49eqnugug6GAHoFEFwAbdRRBRMmi80a+Ve3QXQNHBANCIAYCIQhEEAnb4x/f2iwGAFjAANOJ9AETUtwjc6NeMD+Bnuoug6GAAaMQAQEQ9E0LAsZwozPU380C5VLR1F0HRwQDQ6BndBRBR/Cil4DpeFEf99XgDIDXgKoBGu3QXQETxEgQBqrNW1C/+AOf/aQl2ABrdp7sAIooHpRQc2x3W6X1h2KG7AIoWBoBGDAA9GvDZ5USRIqWEVbUhoznX34wF4JDuIihaOAXQ6ACAX+suIpYYAGhEBIFAddaK08UfAB4pl4r8I6UGDAB1pqcmFYCi7jriiNd/GgWe68GqWHHseO3TXQBFDwPAct/AME/mTgjFHxklmJQKVsWCY7u6S+nVw7oLoOhhAFhiemryAICtuuuImxiOiIg64ns+qrNVBIHQXUo/GABoGQaA5j4MHgzUFcMwGAIoUaSUsKs2bMtJwu82AwAtwwDQxPTU5M8BXKO7jjgxwC4AJUNtUx8Xldkq/Ogc4tOvR3QXQNHDANDavwJ4VHcRcZFKp6J26AlR13zPR2W2CtfxknQn0OPlUpHbnNMyDAAtTE9NVgFcAeCo7lriwDRNWJaN6mwV1YoFq2IvtE8d24XruAtbpfqeD98PEPgBRCAghICUEkopdhFIi8Cv7eZnW04SgyxXAFBT3AhoBdNTk/tz+cJbAEwDGNddT5SlzTSgACHDWRttGMbCR8MAYBi1z1H3ee0BDGPu6+uer/37+s+JlvM9H67rxW1Nf7e4twk1xQDQxvTU5D25fOEKADcBOEF3PVGWTqcRBOHMmc53AsLsCNRCAmBg5VBhLHw+HyoaA0n9R4ofpRR8z4fnepDJG+03wy4mNcUA0IHpqcltuXzhpQC+DeD3ddcTVdnxMWRUBphr5SuFxbb+kscK888Pr7757xfmngULocIwFoKFYRgwUqnFQJEyGkIFQ4QeQgj4XgDf80dtqumI7gIomhgAOjQ9Nfl4Ll+4FMDVAAq664mitJlGuod/txAK5kICljyu//9Nw4VGYYSKMRM4eZOBzesU3vMq4Ph1Bqpu7T/LM2C5BqouUJ3/fOE5A5aH2se550frutaeCMTC/SYypOmpGGIHgJoydL+BxlEuX3gPgOsArNZdC6F1cIBqGSaWdiSiYDwD/OijEhNjvb+G7dVCQ9XFQoCY/7jroIHt+wzMWEbD9MfidAcaOhRxFQQCgV+70TSBN/T14u3lUvE7uoug6GEHoAfTU5M35vKF+wB8DMA7UFsGT5rU3xDYq4WRfMMUBVp3HQbQibjkHNXXxR8AJsYUJsYUjltTe+z5wJYHDdx0t4EDT3X+OsunNpbcN7H0xkvUB4nh3HyppIKQAlJICCEhhVxYTUIN2AGgptgB6FMuXzgPwD8DeCe4rHKkNYQItJ7SqO/Tn3uKwJkn1LaYvfzFCi85I5xanp41cMtPge/sMDBjhfOaveg4SDSEt+bvSQq1i74UAkLwQt+FF5VLxV/oLoKihwEgJLl84YUAPgrgj8EgQB1IGcDNHzqGTavD+xvcexi48R4Dt+82EO+t6ylEJ5dLxd/oLoKihwEgZLl84XkA3o1aR+ACzeVQhF10ZoBPvLPa9+tYLrDtIQP/uxPYdZCzUbRMtlwqerqLoOhhABigXL5wNmpB4J0AXqy5HIqYf7zSQu5cv6d/KxWwc7+BLfcDd+wxYPPtnZqrlkvFNbqLoGhiABiSXL5wBoA/AHAJansJvAjoadUcJcDEmML/FGaRzXT39/fob4AtDxi47UEDR2YHVJQLcSsAAALgSURBVBwlye/KpeIG3UVQNHEVwJBMT03+CsCvAPw3AOTyhTUAXgrgHABn1f33fAATmsqkIXn12X5HF3+lgL2PG7hrL3DHHmD/k2zxU1f4C0MtMQBoMj01WQHwk7n/FuTyhTEArwZwOYDLUOsUUMK84fzWrX/LBXYeqF30t+8z8AzPcaPeMQBQS5wCiLhcvnAKakHgcgBvAMB2Xswdv1bipg/Oon6Z/BPPAnftM7B9L3D/rwx4iTmGnjSrlEvFtbqLoGhiAIiRXL6QBnAxamHgcgAvA5ccxs67Lnbx/ksd7D5YG+Hftc/AL7vYpIeoCwwA1BIDQIzl8oXjAbwRtQ7BZQCeo7ci6sRZx1Xw8GGFqqu7EhoBXAVALTEAJEQuXzAAXIjF7sAl4D0ekSOERHW2/7X/RB2yyqUizyyhphgAEiqXL6wDkMNiIPg9vRURADi2C8/lon0aGrtcKq7SXQRFEwPAiJjbqnh+ZcGlAMb1VjSaZo9VeEIdDZNTLhW5rJiaYgAYQbl8YQK1EDDfHThHb0WjIQgCWBVbdxk0WoJyqZjRXQRFEwMAIZcvnI7FMPB6ALxreABsy4Hv9bb1L1EfNpZLxRndRVD0MABQg1y+kEFty+LLhBAfSafT3EgkBEopVI5VeYQt6XBOuVR8RHcRFD0MANTURW/+s/UAZgzDgJkxYZppmKYJI8U80Avf82Fbju4yaDS9qlwq3q27CIoeLhOjVjYCtZGr7/kLretUOgXTrAWCtJmGYTAQdIKtf9LoBN0FUDQxAFArG5s9KYWEJzx4c5vYmGYa6YwJ0zSRTnNTwmaUVAgCobsMGl0MANQUAwC1sqmTLwoCgSAQcOGC0wXN+T5H/6TVZt0FUDQxAFArTTsAK1lpusA0zZE9l8xj+5/0YgeAmmIAoFa6DgBLNZsuMDMm0qaJ1Ih0B6SQkELqLoNGGzsA1BQDALXS0RRAN+anCwCegkM0ROwAUFP/D7baRICP0uKKAAAAAElFTkSuQmCC;" vertex="1" parent="1">
          <mxGeometry x="210" y="90" width="80" height="80" as="geometry" />
        </mxCell>
        <mxCell id="zCbiE_UP_g8nWA5C_TtH-27" style="edgeStyle=orthogonalEdgeStyle;rounded=0;orthogonalLoop=1;jettySize=auto;html=1;entryX=1;entryY=0.5;entryDx=0;entryDy=0;" edge="1" parent="1" source="zCbiE_UP_g8nWA5C_TtH-28" target="zCbiE_UP_g8nWA5C_TtH-24">
          <mxGeometry relative="1" as="geometry" />
        </mxCell>
        <mxCell id="zCbiE_UP_g8nWA5C_TtH-28" value="" style="shape=image;verticalLabelPosition=bottom;labelBackgroundColor=default;verticalAlign=top;aspect=fixed;imageAspect=0;image=data:image/png,iVBORw0KGgoAAAANSUhEUgAAAgAAAAIACAYAAAD0eNT6AAAABHNCSVQICAgIfAhkiAAAAAlwSFlzAAAN2QAADdkB5qHXhgAAABl0RVh0U29mdHdhcmUAd3d3Lmlua3NjYXBlLm9yZ5vuPBoAACAASURBVHic7N13nBvlnT/wz8yob3HvBYzBptlUp0AKIJKQOIWEEhIBTgglRZdLucsvuVwuheOSXCoX0VJoRoRQEgg4oYliOiZATDPFNAPubVerNuX5/SGvWa+1qzYzz8zo8369eNnWSpov9q6ezzxVEUKAiIIlmUrPArAfgD0B7DHk1y4AFgAx5FcxwmNFAGsAvA7gtSG/vpHLZnTX/meIyBEKAwCR/yVT6T0AHLXjv/cDmOPg5SwAa7F7MHgdwDO5bOYVB69NRDZhACDyqWQqHQbwSQBfRrXR94qtAP4x9L9cNvOy3JKIaDgGACKfSabSvQC+CeBsAFMll9OobQAex67BYHUum+EHEJEkDABEPpFMpRUAnwPwYwBT5FZji+2ohoL7AdwN4MFcNlOWWxJR52AAIPKBZCp9KICLALxDdi0OKgF4EMBdO/5bkctmDLklEQUXAwCRxyVT6S8COB9ARHYtLssDWI63A8E/c9mMJbckouBgACDyqGQqHQdwMYDTZdfiEVsA3AsgB+CWXDbzmuR6iHyNAYDIg5Kp9AQAtwE4THYtHvZPADcCuCmXzTwhuxgiv2EAIPKYZCo9CcCdABbKrsVHXgdw047/7uXcAaL6GACIPCSZSk9Bdbx7f9m1+NhWAH9DtXfg1lw2k5dcD5EnMQAQeUQylY4AeADA4bJrCZAygDsAXI3qUEFBcj1EnsEAQOQRyVT6lwC+LruOAMsD+AuAqwDkctmMKbkeIqkYAIg8IJlKLwZwMwBFdi0dYh2AawBkc9nMY7KLIZKBAYBIsmQqPR3VGe0TZdfSoZ4HkAWwNJfNvCq5FiLXMAAQSZRMpVVU17UfJbkUqp5y+HcAF6A6eZAfjhRoquwCiDrcf4KNv1eoABajuoLgxWQq/Y1kKj1Ock1EjmEPAJEkyVT6Hajufa/JroVGVER1BcEF3GyIgoYBgEiSZCp9O4APyK6DGnY1gG/mspl1sgshsgMDAJEEyVT6XQAekl0HNa0PwPdQ7RHgMkLyNc4BIJLjv2QXQC3pRfVkxn8kU+l3yy6GqB3sASByWTKVXgTgUdl1UNsEgEsBfJU7DJIfsQeAyH28+w8GBcAXANy74wwHIl9hDwCRi5Kp9KEA/iG7DrLdawA+kstmnpVdCFGj2ANA5K7vyi6AHLEHgAeSqfTRsgshahR7AIhckkylxwDYACAiuxZyjA7gzFw2c6XsQojqYQ8AkXs+Djb+QRcGcEUylf6e7EKI6mEAIHLPibILINf8KJlKf012EUSj4RAAkQuSqXQPqt3/Mdm1kGssACfnspkbZBdCVAt7AIjcsRhs/DuNCuCqZCp9pOxCiGphACByB7v/O1MMwF+TqfR82YUQDcchACKHJVPpOIBNABKyayFpXgHw7lw2s152IUSD2ANA5LxDwca/080BsCyZSnfJLoRoEAMAkfMOlV0AecJhAC6RXQTRIAYAIucdIrsA8oxUMpU+RXYRRAADAJEb2ANAQ12UTKVnyS6CiJMAiRyUTKWjAPpR3SGOaNA9AJK5bMaSXQh1LvYAEDnrQLDxp90dBeCbsougzsYAQOSshbILIM/672QqfbDsIqhzMQAQOWuy7ALIsyIAsslUmjtEkhQMAETOGiu7APK0/QF8X3YR1JkYAIicNU52AeR5X0um0rNlF0GdhwGAyFnsAaB6YgDOk10EdR4GACJnMQBQI1LJVPow2UVQZwnJLoAo4Dx/BkBYA7qiAl1RgUREDPl99euWAMSOXy0LEGLHYwKwhAJLAMUKsLFfxaZ+FQZXtrdCAfBzAEfLLoQ6BwMAkbM2unWh7qjAnpNMTOoRNRr02o18V1QgrNlXgxDAlgEVG/oUbOhTsbH/7d9v6FexoU/FtgEF3H6spqOSqfTHctnMzbILoc7AnQCJHJRMpTMAvmLne0ZCwB4TTMyZZGLOJAtzJprYc5KFST3+uPU2zGpvwZtbVbywXsOL6zS8sE7Duu0ckQSwCsCCXDZjyC6Ego89AETOWmvXG+0/3cSJi8p4zzwdmo/bypAGTBtrYdpYC4fPebud6y8pO8PAi+urv761zcf/o63ZF8BZAC6SXQgFH3sAiByUTKXPAPCHdt4jERX4wfEFHLZn590U5stvh4LHXwvhyddDMEzZVTnudQB75bKZ4P+fklTsASBy1ivtvLgnJvDTkwcwf1pntgXdUYFD9jBwyB4GPv3OMgplBY++EsKDL4ax/Pkw9GD+tcwG8FEAN8kuhIKt4/rXiFz2fDsv/vz7Sh3b+NeSiAocta+O//hYAVee3Y9jD9ChyC7KGWnZBVDwMQAQOSiXzbwFIN/Ka3vjAscdqNtcUXBM7rXwnY8W8NFDKrJLcUIymUrPl10EBRsDAJHzXmjlRR8/pIJomHN06nnnXoGcG6HA5tUjRMMxABA5r+kAENaA4w8tO1FL4Dz7po0bGXjLkmQq3S27CAouBgAi5zUdAI49oIJxXbz7r6esK7jz2bDsMpzSC+BU2UVQcDEAEDmvqYmACoCT38G7/0Zcfn8UG/oC/THGYQByTKB/cog8oqkegHfMNTB7gj929ZPppQ0arl8RlV2G0w5MptL7yS6CgokBgMh5TQWAEw7n3X89QgC//HscVmeMknxQdgEUTAwARA7LZTN9ADY18twpvRYO7cAd/5r1l8cjeH5dYCf/DccAQI5gACByx/pGnvShBYHd2MY2A2UFV94fk12Gm96fTKUjsoug4GEAIHJH3QCgAPjQgkBuamOr6x6Nor/UUTGpC8ARsoug4GEAIHJH3QBwyB4Gpo7h5L/RbCsouP6xjrwZ5jAA2Y4BgMgdG+o94biFvPuv5+qHoihWOurufxADANmOAYDIHaP2AHRFBd47j/v+j2Zjn4q/PhH4ZX8jOSSZSk+QXQQFCwMAkTtGDQDH7K8jwsO5R3XNI9GgHv/bCBXAPNlFULAwABC5Y9QhgA9z8l9dK17p+IQ0XXYBFCwMAETuGLEHYM4kE/Onde6tbSO2DCh4c2vHf1xNk10ABUvH/0QRuWTEAHDcAo791/P0Gx1/9w+wB4BsxgBA5I6aQwCaWj35j0ZX5uaIAAMA2YwBgMgFuWymBKB/+OOL5hgYm+iMDe3b0d2xk/93wSEAshUDAJF7tg1/gHf/jemOMSSBPQBkMwYAIvdsH/qHRETgiH3Yt92Iyb3cIRHAWNkFULAwABC5Z5cA8J55OqIh3tk2YkqvhZnjOz4E9MkugIKFAYDIPbsEgA8cwNn/zXjnXh3/97XbEBJROxgAiNyzMwBM6LZwyB7s/m/GUfsxAMgugIKFAYDIPTsDwDH761A68kyb1u0/3cRR+3Z0CNhe/ylEjWMAIHLPzg/wY9n935Jzji518rwJ9gCQrRgAiNzTBwB7TjSx92Ru/duKyb0WvnRMSXYZsjAAkK0YAIjcsx3g3X+7PnZIBae8qyy7DBkYAMhWDABE7tmuAEjuzwDQrjPfX8Ixnff3+IbsAihYGACI3LP9gJmGwU1t2qcA+H8fKeCg2R21kuJ52QVQsDAAELlk/lRT+dCBOo+1s0lIA370qQL2nNgx8ylekF0ABQsDAJFLkvvrPe/r7GVstuuOCvzkpEInbBW8NpfN7HaYFFE7GACIXHLConK8O9qxS9gcM6nXws9PGcCE7kD/3fLun2zHAEDknn1lFxBUM8ZZ+Pkp+SAfrczxf7IdAwCRe+bLLiDIZk+w8L+fHkBPMI8OZg8A2Y4BgMg97AFw2NzJJn568gASwRtqYQ8A2Y4BgMg9U2UX0AnmTzNx7qcKUIN11sJTsgug4GEAIHJPRHYBneLg2QZS7w7MboFrctnMa7KLoOBhACByDwOAi05/TwkHzAjEHgH3yS6AgokBgMgNK09j4+8yVQG+nCzKLsMOy2UXQMHEAEDkjqjsAjrRvtNMLJjp++2CGQDIEQwARO7IA+BObhKcsKgiu4R2bMplM8/JLoKCiQGAyA0LlwpwJrcUh+9pQPPvJx3H/8kx/v2xIPKff8ouoBPFIwLzpvp2MiC7/8kxDABE7lkpu4BO5eNjg9kDQI5hACByDwOAJPtP92UPQD+AJ2UXQcHFAEDknmdlF9CpJnT78rjgB3LZjC+TC/kDAwCRWxYu3QZgvewyOtG4Ll+eDcDuf3IUAwCRu3ioiwTjEr7sAeAEQHIUAwCRu1bJLqATRULw2wmBJQArZBdBwcYAQOQunusuSUSz7716YgIhG9+vhkdz2UxgTjMibwrJLoCow/BMAEnMNkYBVAU4aj8dHzyggr0mm5jQLWAJYO02FY+/GsLSB6PYnLf1ford/+Q4BgAid02RXUCnslocAfjwwgpOPaKMqWN2TRCqAswYZ2HGuAo+uEDHpcujuH6FbUc+MACQ4xgAiNw1VXYBnarZANATE/i3Dxfxnnl63edGQwJfOqYEAHaEgAqAh9p9E6J6GACI3MUeAEmsJoYA9pxo4scnFTC5t7lxgy8dU8KbW1U89FK4yep2cXcum8m38wZEjeAkQCJ3MQBIYlpKQ8+bOd7Cz04ZaLrxH/TFo0vtHj50Y1uvJmoQAwCRW1aepgDYQ3YZncpsYAhg6hgLPz9lAOPb2Dho5ngLH17Y8hHEAsBfW744URMYAIjcMwtAQnYRnUrUadPDGnDuCQVM6ml/06A2AsCKXDbzVtsFEDWAAYDIPfNlF9CpGpkA+MVjithrkj1b78+fZrZ6/gC7/8k1DABE7pknu4BOVW8PgCP21nH8oS3fte9GAfDuvVs6gvgm24ogqoMBgMg97AGQZHth5I+6SAj46gdLtl9z5rimewBezGUzPDGSXMMAQOQe9gBIsjk/8gqA4w8t2zLuP9y0sU2/J+/+yVUMAETu4RJASTaNsE1vV1Tgs+92Zsv9cV1NBwCO/5OrGACI3DNedgGdatMIPQCfOqyCnpgzpwQmmjv1YQO4+x+5jAGAyD0MAJJs6t/9o04BcFzry/XqikeaChY357IZ+8chiEbBAEDkhpWnhQF0yy6jU9WaA7BwtrHbAT92ioebCgDs/ifXMQAQuYN3/xLV6gE4bkH9Q37aEQ2j0QQwAOBOJ2shqoUBgMgdDAASDe8BUAAcuY+zAWBTXmns8AHgtlw2Y/86RKI6GACI3BGTXUAnG94DMGWMha6oM5P/Br28QWv0qez+JykYAIjcsUF2AZ2qrCvIl3e9Gbdry9/RvLyxoQCgA7jF4VKIamIAIHLHBqDhMWGyUa0lgHtNdn7C/csbGvp4vTWXzWx1uhaiWhgAiNywcKkOYIvsMjqRqgCTe3dt8N3oAXilsR6APzpdB9FIGACI3LNWdgGdaNpYC0vP7sfXP1TElB1BYK/JzgaAoq5g7ba6H68D4Pa/JFFIdgFEHeRpAAfKLqIThTTgowdXcNzCCu54OoIZzR/U05RXNqqNjPfclMtmCo4WQjQK9gAQuedx2QV0upAKfHhhBWqjC/Ra1OAKgKudrYJodAwARO55QnYB5I7lz4frPWUzgNtdKIVoRAwARO5hD0AH2Niv4vHX6o6uXpfLZpzdiYioDgYAIrcsXLoFwGuyyyBn3fF0GKL+BAB2/5N0DABE7lohuwByjhDArU/VPQd4DYD7XSiHaFQMAETuWi67AHLOXc+F8ebWuh+r1+SyGW4KRdIxABC5iwEgoIQA/nBvQ0c+sPufPIEBgMhdTwHYJrsIst/Tb2pY31f3I/WpXDbzpBv1ENXDAEDkpoVLLXD8N5AuviveyNP+4HQdRI1iACBy372yCyB7bc6rWLW27uY/ZQBLXSiHqCEMAETu4zyAgFn+fEO7qt+Yy2Z4IBR5BgMAkfseB5CXXQTZ55HVdXf+A4DfO10HUTMYAIjctnCpAeBB2WWQPUq6gidfr9sD8CqAnPPVEDWOAYBIDg4DBMTjr4Wg1z9d+FKu/SevYQAgkoMBICAeWV337t8CcLnzlRA1hwGASI5HAZRkF0Hte7h+ALgtl82scaMWomYwABDJsHBpGcAjssug9ry0QcOm/rofo1z7T57EAEAkD4cBfK6B7v+NAP7qQilETWMAIJLnPtkFUHserr/878pcNqO7UQtRsxgAiOR5CIAhuwhqzfaigufeqrv7H7v/ybMYAIhkWbg0D4AHw/jUipdDEKMv7Hswl80851I5RE1jACCSi8MAPvXIy3W7/7nzH3kaAwCRXAwAPrVyzajd//0ArnWpFKKWMAAQycWjgX1o3Xa13vK/a3LZzIBb9RC1ggGASKaFSzcCWCW7DGrO029w8h/5HwMAkXwcBvCZp94Ydf3/07lshps8kecxABDJxwDgM3V6AHj3T77AAEAkHwOAj/SXFLy2acQAUAGw1MVyiFrGAEAk28KlrwJ4Q3YZ1Jhn3tQwyvL/G3PZzGb3qiFqHQMAkTewF8An1mxm9z8FAwMAkTc8IbsAasymvDLSl14DcKeLpRC1hQGAyBuekV0ANWbjyOv/L8tlM5abtRC1gwGAyBsYAHxiY1/Nj00T7P4nn2EAIPKG1wFw5zgfWN+n1jred1kum+FETvIVBgAiL1i4VADgyXEeISwByzB3f1wAWweUWrMAL3G+KiJ7MQAQecd22QVQldFfghravZ3XTcASu31uvgbgVlcKI7IRAwCRd9TqWiaX6X0lKOG6e/0P9TtO/iM/YgAg8g4GAMnMog6jUEEoERnpKeVhfzYAXOpsVUTOYAAg8o7dB53JNZZhorK1gHB3dMTnCKE8P+yhv+aymbXOVkbkDAYAIu8YZYdZcpIQApVNBQBAqGvEu39YYreJmhc7WBaRoxgAiLyDAUAGAVQ2D8AyTIS6o4Ay4k5/MC08O+SPq8Gd/8jHGACIvIMBwG0CKG8egFkyAEWpBoBRVMxdegB+l8tm+G9GvsUAQOQdbEzctLPxr869DHdHoKgj3/0DQElX3tzx2wqAy5wtkMhZDABE3sEA4JZhjb+iKgj1xOq+LF9Stuz47V9y2cwGByskchwDAJF3MAC4YVjjDwDh3ljdu38AWLNF3brjt9z5j3yPAYDIOxgAnFaj8VfDWt2x/x2M/7k5sR3AC7ls5m6nSiRyS0h2AUS0U1F2AUEmLIHy5gFYZWOXx8Nj6nf979C341fe/VMgMAAQeQfHlB1i6SbKmwcgjF137NViYWixcKNv04PqZk1X2FwekRQMAETesVF2AUFklnSUNxeqR/kN08TdPwCE7/yu2jMw+3/ythVHJBHnABB5B3sAbKb3l1HeNFCz8Q91R6E2d+gP9J4jFgK4LZ/Pj7WpRCJpGACIvIM9AHYRQGVLAfr22tMqFFVBuLepu//q22pjDgDwfgD35/P5qe0VSSQXAwCRd6yXXUAQWLqJ0oZ+GIXKiM8J9TS27G83inrYjt8dAOC6fD7PYVTyLQYAIu94FjwSuC16XwmlDf2w9JEPVlTDGsI9DS37241QQgcO+eN7APyspTci8gAGACKvWLi0BGCl7DL8SBgWShv6ofeVRt9NQQEi4xOtXyc0ad6wh76Wz+dPavkNiSRiACDylkdkF+A3Rr6M4vp+WJWR7/oHhXtiTU/8GyS0bpjRPcfU+NKF+Xx+fEtvSiQRAwCRtzwquwC/sHQT5Y15VLYVa87yH04Nay1N/BtkJA4GlJofmRMB/LTlNyaShAGAyFvYA1CHsAQq24oore+HOWxXvxG12fUPAEb3YaN9+Qv5fP6Iti5A5DIGACJveR5cDjgiI19GaV0fjHy5qde10/UPAGbiQJjxfUd7igLgIq4KID9hACDykoVLBYDLZZfhNWbJQGl9PyrbihBWc2cmVWf9t971L9QulCad2shTFwL415YvROQyBgAi77kEPBkQAGCWDZQ35lHelB91ad+IBrv+W1jyP6g88RQIrdbcv5p+kM/nZ7Z+NSL3MAAQec3CpasB3C67DJnMkoHSxjzKG/ONj/PX0G7Xvz7mGBjdhzfzkm4A57d8QSIXcbyKyJsuAvAh2UW4zSzp0PtKDS3pq6edrn+hdaM88VQYXQe18vJPXXvLHedc8seb5gNYBeCGXDazuaVCiBzEHgAib7oFwBrZRbhBWKI6uW99P8qbBmxp/Nvp+jfj+6Mw83utNv4AgCMOXfBlAF9GdThnVTKV/nTLb0bkEEU0sH6WiCRYedqZAH4nuwynmCUDRqECs6g3tI6/GeExsebv/pUwyuOPhz7maLQ1aWCHs7/7vw+v37TlXUMe+guAc3LZDFd5kCewB4DIqxYu/T2Au2SXYSdhWND7Siiu7UN5Ux5moWJ746/Fw003/lZkBgozvg19zDGwo/EHgAP2mbPPsIc+CeCeZCo9yZYLELWJAYDI284CsE12EW0RAkahgvLGPIrr+qD3lSBMy5FLqWEN0aY2/FGgj0miMOPbsCLTba0lEYtOqPHw/gDuTKbS3DqYpGMAIPKyhUtfBvAxALUPtvcwq2KisrWA4to+VLYU2prN3whFVRCd0AUojd3BC20MitP+BeUJJwKKvfOhhRB4dOVzI315IYDbk6l0w2sLiZzAAEDkdQuX3g/g0wBGPuDeC4SAWdKr2/Su60NpQz+MgUrTG/e0KjI+ASXU2Eea0XUwCjO/BzO+nyO1/HPVS9iweetoTzkMwPXJVJqfwSQNv/mI/GDh0psBHAFgtexShrJ0E3p/GeWNeRTe2o7ypgEY+TIsw5ku/pGEx8SgxcJ1nye0LpQmfw6lKedAaF2O1LJh81ZcsPTPjTz1WAA/dKQIogZwFQCRn6w8rRfArwGcDqD1HW5aJEwLZtmAVTJglnTX7u5Ho8XD1a7/Oozuw1GecDKE1uNYLRs2b8V3f/Hbenf/QwkAH81lM39zrCiiETAAEPnRytP2BvAfAE6Dgxt6WboJq2JWfy0brW3H6yA1rCE2uXvUcX8RGofyxM/ASCxwtJYWGv9BWwAcmstmXnOgLKIRMQAQ+dnK08YBOAbV7uSjAewJINr0+wjAMoY09hUDlm7ZvkTPToqqIDa5Z5RxfwV673tRGf9JCLX1w4Aa0UbjP+iuXDaTtLMmonoYAIiCZuVpPQAmAlgC4PuDDwtLQJgWhGFVfzUtWEb1z5Zh+u74oejErhHH/a3wFJQnnQoztrfjddjQ+A86NZfNZO2oiagRDABEQbXytE8ZytQbjHUvVht8D4zX22XEnf4UFZUxH0Rl3GLbl/bVYmPjDwDrAczPZTPb7Xgzonq4CoAouLYY44+FmZgXqMZ/pJ3+rOgeKMz4DirjP+HHxh8ApgA4z643I6qHAYAouLZa8bkQsz8puw7b1NzpTwmjPOFTKMz4FqzITFfqcKDxH/SlZCp9mN1vSlQLAwBRQFW632VZkSnAuAUQvfNkl9M2RVN32+nPjM9HYeb3oI/5ANz6ONu4ZZtTjT9Q/Z+4mBsEkRv4TUYUUObE4+cNHmwj5n6u4S1yvUhRFUQndu2c8S/UOMqTTkVx2tdghd07W2fr9n5871e/c6rxH3Q4gC86eQEigAGAKLBMdczCnX/omQMx9ViJ1bRBqTb+ari675HRdQgKs34AvedIV8voyw/ge7/6HdZu2OzG5c5LptKT3bgQdS4GAKKAUhRl9tA/izmfBsLO7YLnCAWITuiCGglBaGNQmnI2SlPOhtB6XS1joFDE93/9B6xZu8GtS44F8G9uXYw6EwMAUXDt2jce6oKYc4qkUloTHV9d66/3HInCrO/D6DrE9RpK5Qp++JvL8PKat9y+9Dk8MZCcxABAFFwThz8gph4N9MyVUUvTIuMSUHpnoTj96yhPOhVCjbteQ0XXcW7mcjz/8uuuXxtAL4AzZFyYOgMDAFFACSFqzI5TYO39ec9PCAyP7YE181MozPwuzNg+UmowDBM/vmgpnn7hZSnX3+GdMi9OwcYAQBRcu/UAAAB65kJMOdrlUhqnTT8E+n7nurabXy2mZeFnv78ajz/zgpTrD/HxZCq9p+wiKJgYAIiCKYJqF3JNYu6pELEpLpbTgHA3lAVp6Ht/C1ZYXm1CCPz6smvx8BPPSKthiDiqxz8T2Y4BgCiACoVC7bv/QVocYv+vAWrEpYpGJ6a8D2LRr2COc3dp3251CIELrvozlj/6pNQ6hvlEMpU+TnYRFDw8DIgogIrF4izTNOvOXFPW5qC8+Hs3SqotPg1iny9AjD1AXg1D/O5PN+OWux6QXcZuhBCb+/vyd0NgPwBPAjh3xbIrnpddF/kbewCIAuhff/TrhnaSE9OSwGQJd91KCGL2p2Ad9lPPNP5Lb7zNk40/ACiKMiEajZwI4AAAKQDPLFq85KpFi5fMl1wa+RgDAFHAJFPpMzdv2/4fjT5fzDsLotfFmfZj9oN12E8g9jwJUMPuXXcU1/3tLlz/97tllzEqLaTt8kdUg8CzDALUKgYAogBJptInALjYauL4X6FGIRZ8G+iZ41xhABDqhph3NqyDvgckZjh7rSb8NXc/rrrpdtll1FUulms9rIJBgFrEAEAUEMlU+lgAVwPQLMtq7sVaAtaB/wF0zXKiNIjJ74G16BfVjYjgnT0IbrvvUfzh2ltkl1GXXtFhmqP+mzIIUNMYAIgCIJlKvwPAX1Bd/gez2QAAAOFuWAu+CxGfZl9h8SkQC/4DYt+vAGF39++v555HnsBF2b/ILqMuIQRKpZp3/7UMDQJZBgEaDQMAkc8lU+n9AfwNQPfgY033AAyKjIE46HsQvW22G4oGMft4WIf9DGLcgvbeywEPPv40zr/8OvhhFVSlXIFoYkhnBxXAZ/F2ENjX/srI77gMkMjHkqn0XAD3AthlUD0SDuO6zLmtv7EwobxyDZQ3lgFo8jOidx6seWcBiZmtX99B/3j6eZx34ZUwTVN2KfUJoL8vb0dQsQBcg+rywVXtF0ZBwABA5FNHf+bL+yiK8qCiKLtt+hPSNNxw4XltX0PZ8jiUVRcCxkD9J4cSEHM+CzHtGHhpnH+olatW49zMZajohuxSGlKp6CgVSna+JYMA7cQAhM/cvgAAIABJREFUQOQzixYvmadp2jfjXfEvqKqi1XqOoii48eIf23NBowC8nIW67m6M1BsgJr0bYu7pQGSsPdd0wKrVr+H75/8BpXJFdikNy/cPwBp98l+rGASIAYDIDxYtXhIHcCKAM1VVfV+iOw5VHX0Kz02X/MTWGiyzDGx6DNqrf4JS3lh9MDYZYu/PQ4w/2NZr2e31t9bj2z+7GAOFouxSGmYYBgp5x+u1APwJwI8YBDoPAwCRhy1avORgAGeiOrN7rKoqSHQn6jb+AHDjxT+G4sCxv5awYObfgFZYA3XSOzyzmc9Itmzrw7d+eiE2btkmu5SmFPJFGIZrQxUMAh2IAYDIYxYtXtIL4DOoNvyHDz7eTOMPOBAACgOwVq6AVRiAPm4CMP9AxOJdjoQMuxRLZXzn55fglTVvyS6lKZZpId/fwLwLBy6NahA4d8WyK56TUQC5hwGAyCMWLV5yBKqN/qcBJIZ+TVEVdDXR+IdDGq7L/Lc9jfP6t2DdcRPEAzmg8vZ6dDF5GsxPfwGhhYdDU2tORZDKtCycm7kcTzzzguxSmlYqlFCp6DJLYBDoAAwARBItWrxkIoDTAXwBwP61ntNs4w8A8+bMxM++nW6vuEIe1o1ZiLv/Boyyr4B14KFQz/wGtJ4x7V3PZr+58nrc+cBjsstomhAC+b4Br+xRwCAQYAwARC5btHiJAuBYVO/2j8eO3ftqaaXxB4CPHvNunPXpT7RWoBAQy2+H9ecrgXxfY6/RNIizvonQove2dk2b/emWHK6++Q7ZZbSkUtZRKtq69M8OFoBrUZ0jwCAQEAwARC5ZtHjJDACfB3AGgLon76iaikRX/dn+tXzjCyfjfYsOaX4IYCAP65L/hXjmiaavCQBY9B6oZ/0bFE3ekMBdD/0D519+nbTrt8vBpX92YBAIEAYAIgctWrwkBGAxqnf7H0b1GNe6tJCGRFe85TH8i//7m5g8YXxTY/NizSuwMucBm9a3dM2dZs2B+p+/hBIKtfc+Lfjncy/hh7+5zB+7/NVgGiYG8gXZZTSCQSAAGACIHLBo8ZK5qI7rfw5AU6frhMMhxBPxljfTmzppPH753a8gGokipDXWCIuH74W48jcQ5YYPnRmVst9CqN84F2ih96JVr76xFt/52cUoNH5wjucUCyXocif/NWswCJy7YtkVz8ouhprDAEBkk0WLl0QBfArAWQCOQgtNeCQaQSwebauO973jIHzxsx9HJBxBOFR/jb647w5Yl/9fW9esRXnvB6B+7qu2v28tm7dux7//5AJs3tbgnAUPEkKgvy/f9NELHjE4WfC/Viy74iXZxVBj3O+jIwqYRYuX7Idqo386gAmtvk8sHkUkOuJ8wIbNm7PjEJ5GGpKVK2BdmWn7mrWI++6AmDYLyoc+6cj7DyqUyvjhby7zdeMPoHrn78/GH6iePvgZACctWrzkUlSHBt6UXBPVwQBA1IIdW/OeBOBsAEe2+37xRBzhiD0/jvPnzAIAiHqtyepVsC766ahL/NplXXcZ1MnToRzyTkfe3zRN/OSipXjtzXWOvL+bKmVfdf2PJITqz8TpixYvuQDAj1csu2Kz5JpoBBwCIGrCosVLDkL1bj8FwJaTb6KxKKKx9u/8AaArEcNvz/t3KAoQ0kKIRkYYTli7BuaPvwUM5G257qiiMajf/imU2XvZ/ta/vuxa3P3w47a/r9sMw0TBH5P/mtUH4JcAfrli2RX9souhXTEAENWxaPGSbgCnoNrwv8OJa0RjEURj7Y39A8DB+++Nb539GQCApmqIRWO7P8k0Yf7gX4C31rR9vYaNmwjt3AuAeKL+cxuUvel2XPu3u2x7v2YZugHLpt4TXTdgGv5cudCgLQAuBXDRimVXvCy7GKriEADRCBYtXnI4qt2ZpwDocfJa5VIFhmEinohDVVvfvnew+x8YeQjAeuoxdxt/ANi6CdYtf4J60udtebs77l8htfEHAFXTUCqWbQsBATcewL8B+MaixUv+DuACALeuWHYF70AlYgAgGmLR4iVjUO3ePwuAq2fcmoaJgf4BdPU0v/PfoHlDA0CN3j0hBPQ3XpXygy/uvBk46sPApKltvc8/nn7euuCqPwPViWfSDB7OVMgXGAIap6K6L8ZiAKsXLV5yEYBLVyy7YqvcsjoTAwARdh7EcxaAkzHsIB63qKqKWCLacuOvaSr2mj19559rBYCKXoE1Y3bLNbbF0GFdfznUL3275bdY/fqblfMuuMISQtQY23AfQ0Bb5gL4OYBzFy1ecg2AywHcx14B9zAAUMdatHjJeACnodrwHyCrDkVREIlG2p4IuOeMqYhGdl33LyCg7NiOwDRNGKYBZfbctq7TMkWBWS4D+T6o3b1Nv3z9pq193/rphbppWS0vtXQCQ0Db4qhukf15AK8uWrxkKYAruZ+A8xgAqOMsWrzkKFQb/RMAtD/zrg3hcAjReKytcf9BQ7v/dxLYuR1RxahUH0p0QUycAqXdLX+bYB38TugfOQFi+myoqop4k6/PF4pb0j/4xVbDMCWll9ExBOxKVRUoilr9Vd3xa41trQUAYVmwLAHLsoqWaU0QQnwHwPcWLV7yEIArAFzLIQJnMABQR1i0eMlkAEtQbfj3kVzOzu7+kI375c/ba/cAIISAoiiwLGuXhsk88BCE7rnVtmuPRIQ0GCeeAfM9yZ2PWZYFwzQa3qa4ouv4xnm/6avohicb/0EdGwIUQNM0hEIaNE2DFtJaPcNiZy4U1UCwl2manzUM84Pv/Pjnn7NM634Ad65YdoVhW+0djgGAAmvIsbtnA/gEgPr74jrMru7+WubtOXO3xwbnARjmrp+Z5jGLEbrvDsDBQ3PEmHHQz/w6rDnzdvtaRa80FAAsy8L5l1+L9Zu27OlAibbrpBAQDocQjoZtDbGDFFWBpmpTtJA2ZXArCyHEGkM37nvPCWffUC6VcyuWXbHd9gt3GO4DQIGzaPGS6aiOJ34BDRy76xY7u/uHmzR+LM7/r3/Z7fFoJApN01AsFndbFhi+IgNtxf221wIA1p77oHLWN4Ax40Z8Tjw6+lHHpmnihtvuQfamO5wo0VGWJQIZAlRVRSQaRjgSbvmkSpu8BOAaAH/KZTNPyyzEzxgAKBAWLV6iATgO1S7+xfBQ75YT3f3DHXnYAnzltON3ezwSjkBVVJQqpd2+prz1OqL/8y3bazGPTMI46QyI0OhHEYdDYUTCtXtCDNPA4888jx9fdBUsy5+fUUEKAaqqIBqPIRz2zI/VUFcDOC2Xzfj/L9plnvzXJGrUosVLZqN6p38GgN37wCVysrt/uJ0HAA0jhIBu1d5jXkyfjfIPzkfs8vOhDOQBy4KwrOqwgGVBmAaUcrn6WIOMj5wE4yMnNPZc06gZAHRDx1vrN+L/Lr/Bt40/EJzhgMHvYcl3/KP5LIA8gHNkF+I3DADkO4sWLwkB+Biqd/sfguQNYWpxsru/ltECgGWO3PgoQkApl4AdvRNDqx38vWIYEIUCRGEAGKXH0EwubrjxH6zNtExo6ts9BRW9gkKxiF9deh36B/y/N76fQ0AopCEWj0HVPPfjVcvZyVT68Vw2c4nsQvyEAYB84X0nnTPdssR5qqauBvAVAO1tJ+cQN7r7h4tGwpg1bUrNrw2f/Dec+soL9S8QCkHp7YXS3Q3R1wdR3L1hNt99FPTjT22o3l1eZ74dAMqVMgzTwO+vXYZX3ljb9Ht5laoqCEdCKJcqsktpiMe7+0fzw2Qqnc1lMy6ccBUMvvsXps6STKUPsyzr9+FI+GDLsjDQX9gEYKLsuoZzs7t/uLmzp7fc06C92kAAGKSqUMaOBVQVYsgpguYh74T+mbOBFrqIDdNAOBxGuVKGaZq4bfkK3LdiZdPv41VCCJQKJei6P1auRSJhRONRL3f3j2YKgG8B+C/ZhfiFL/p2qPMkU+k9j/nsV/4O4DFVVQ8WQqA4UIQQwnONfzgcQldPl5TGHwD2rrH8ryGmCfW11U2/TOnthbJjbZaYNQfGkq8CLW5fLIRAqVSCaZpYtfp1XHXj7S29jxeZpomB/oIvGn9FUZDoiiOWiPm18R/0zWQqPU12EX7BAECek0yljwbwhKIoxw0+ViqUYI4yli1LoiuOeFd7J/i1a589ZrT0utCzT0CplFt6rZJIAKEQ9BNPrzvbvx5LWNiyvR/nX349TJ+Nk4+kUq5goN8f4/6hcAjdvV0I+a/Lv5YE2APQMAYA8pRkKp0GcAeAsYOPVcoVT95FKariiQ/NVnsAQo/e2/pF4zGo48ZDTGr/Zks3TPzqD9die/9A2+8l22BPVanYWrBylQLE4jEkuuJ+v+sf7rRkKu3o8d1BIf/TiwhAMpWOALgQ1SV9O1mm5dkPU01r787XDpMmjMWYnq6mX6e+vhrqujfbuLICMWkqRO/Y+k+t4/Lr/47Vr7/V9vvIZpomigMlX9z1a5qKeCLulxn+zepC9Ujvi2UX4nWB/Ncnf0mm0lMB3I1hjT8AFAtF9wtqkNZm17cd9tmjtbv/8CP3tH1tc+6+bb9H7sHHcffDT7T9PrL5qcs/Eo2gq6crqI3/oLNkF+AHgf4OIO9LptJ7AlgB4IjhXyuXyp4c9x8U8kAPwN57Nj/+r2zdBO3FZ9u+tjl3v7Ze/+Krb+CKG5w/kMhJfury3znRLy71AEy3HJpMpQ+TXYTXMQCQNMlUeiyAv6HGDn6mYXp+3bQX7qD2aWH8P/zo8lE39GlIKARzj9YP59vWl8evL7sehoOHETnNT7P8VVVFV0/CE3NWXHS27AK8Tv4nGHWkZCodBnADgJq3kcXi7nvXe4mmqdInToVDGvaYUXsDoJEopSJC/3y07Wubs+cCI+zjX/e1poVfX3Y9tm7vb7sOWSpl3Tdd/qFQCF09iVEPXgqozyRT6eYnyHSQjvuOIM+4BMAxtb5QLldG3b7WC7ww/j9n1rSmhyFCj90H6O33rLTT/X/lX27DC6+sabsGWUrFMkoeD6iDItEIEt2Bm+XfqB5UDwijETAAkOuSqfR3UT2udzeWJVDxeNc/4I0VAHs3OQFQKRURevgeW65ttTgB8N5HnsQd9z9mSw1uE0KgMFBEpez9708AiCdinTLeP5oPyy7AyzpqQIjkS6bSnwFw7khfLxdL8MMR1V7oAdinyQmAoYfuqh780yYxZjysCZObft3La9bi0uv+1vb1ZRBWtfE3fTBnYXCynxe+Rz2APQCjYA8AuSaZSh8J4DLseujcToZu+GJClaIonhhPbWYDIGWgH+EV99lyXXPv5u/++/IF/OoP10I3vN+ADmeZFgbyBV80/pqmoauni43/22YkU+kFsovwKvmfYtQRkqn0GAB/BDBin6QfllIB1QmAso0b04MJY3sbfn74wZwtY/8AYO7V3Pi/aVn4v8uvx+ZtfbZc302GYWDAJ0f5hsMhdHUnpG5L7VEcBhiB/E8y6hTnA5g10hcr5YovPmQBQPXA+H8zy/+Uvm0I/eNBey6saTDn7NPUS66+6U48+9Jr9lzfRXpFRyFf9MWQVDgSRrwrPkLfWsdjABgBAwA5LplKfxzAkhGfIKoz//3CCz0AezdxAFD4/tsB056hFXPWXk0t/3vgH0/j7/c+Ysu13VQulVEs+GSmfySMeCImuwwvO5JnA9Qm/5OMAi2ZSk8E8NvRnlOpVCAs799lDfLC+H+jPQDK1k22rPsf1Mzs//WbtuAP1y6z7dpuKQ4UPb8J1aBINIIYG/96wgCOlV2EF8n/JKOguwjAqLvV+OnuH5C/A6CmqZgzq7FT+MLLbwNsHFppdP2/aVrIXPkXlHz0byuEwEDeHzv7AUA0FuEyv8a9V3YBXsRlgOSYHUv+ThztOZWy7ru7f9mbqsyePgWRBrZ0VTeuQ+iZx227rugdC2vS1Iaee93f7/HVCX+WZaGQL/pmHko0FkU01tpOjB3qINkFeBEDADkimUpPA5Cp97xK2R8z/wfJvvsHGu/+Dy+/tf09/4do9PS/Z198FTfnbJp06ALTMFEY8MdkPwCIxaOIRNn4N+lg2QV4kfxPMwqqCwGMH+0JlYoOy0d3/4A3JgA2sgGQuvYNaKtW2nrdRrr/8wNFXHjVjb5pTPWKjoF8wTf1xhIxNv6tGZ9MpVs7OzvA5H+aUeAkU+mjARxf73l+2PJ3OFWVvwSwkS2Aw/favOOeqsGaM6/u0357zc3Y4pNDfsqlim9m+gPVrX0jkbDsMvyMvQDDMACQrZKptALgF/WeZ+iGb8Zbh5LdA9DbncCUieNGfY665hVoq1fZel1r5p4QkdEnnOUefByPPfW8rdd1SrFQQrnkn+GneCKOMBv/dnEewDCcA0B2Ox3AIfWepOu6C6XYT/YcgLkNrP+P3GP/fvvm3qN3/7+5fhOW/uU2269rNyEEigNFGD7akjgWjyIc4Ue1DdgDMAy/q8g2yVQ6AeC8es8TQvhmqdVQsu/+AWBenQmA2isvQH19te3XHW0CoG6YyFz5Z1Q8/m9qWRYKA0XPHzU9VCQa5pi/fdgDMIz8TzQKkm8CqHuLqusG4I85V7vwwhbA9Q4ACjtw9y96emFNnj7i16+5OYfX3lxv+3XtZJpmdU9/HzX+oXAIsTg3+bHR3slUult2EV7CAEC22LHs7/818ly94tPuf8k7ACqKgrmzR26ItReehvrW67Zfd7TDf/753GrcutzbW/0aulHd099HK040TeP2vvZTABwouwgv4RAA2eVcAF31nmRZFkwfjb8OJXsIYObUSYiN2B0sEL73745cd6Tu/778AC6++iY7txqwXaVc8c0pk4NUVUWiKy59w6mAGjlBdyAGAGpbMpVeCODzjTzXr3f/gPwJgKNtABR6+nGoG9baf1FVrbn8Twjg4uxfsb1/wP5r2qRULKPio62IgWovT6IrDoVH+jplkuwCvIQBgOzwczQ4nOTXAKAoivQhgBE3ADJ0hO925tAda8YeELH4bo/ftvxRPPncS45c0w7FQsmX32vxrrj0oBlwE2UX4CUMANSWZCr9EQAfaOS5pmH6bue/QV74UB5pAmD44buh9G1z5Jq1dv977c31+OPNdzpyPTsUB4q+XGUST8QQCsmfaBpw7AEYggGAWpZMpTUAP2v0+X5aez2cJvnuPxGPYfrk3W9elP4+hB+8y7HrDh//r+gGMlf+GboH/y2ra/xLMAz/Nf7RWJQb/biDAWAIBgBqx1kA9m/0yX6d/AfIXwK49x7TUWtOWPieZYDuzDi36OqBNXXXYYerbrwdb67f5Mj12iGEQGGg6MvvsXAkzJP93MMAMAQDALUkmUr3APhhM68xTf99OA+SvQKg1gRAdd0bCD31mGPXrN79v506Hnvqedz5wD8cu16rhCUwMOCvNf6DVFVBLD76FstkKwaAIRgAqFXfATC50SebpuWbE9dqkT0HoNYBQJE7brL1uN/hhnb/b9nej99ec7Nj12qVZVko5Iu+PFcCAGIJLvdzGQPAEAwA1LRkKj0LwNebeY3pw3HZQYqqSP2QVhRg72FnAGjPP+XIlr9DL2rNmQ+g2r1+0VU3Ij9QdO56LbBMCwMDBV9t8DNUJBrhpD/3cRXAEPKnNpMffQdAU9uU+XFsdpAm+QjgqZMmoGvornCmiUjur45e05q+B0Q8AQC45a6H8MyLrzp6vWaZRnVrX782/qqmIhZj178E0R3DlwQGAGpSMpWeAeCMZl9n+Hj8X3b3//Dx//Bj90HZutnRaw52/7+8Zi2u/dvdjl6rWYZhoDBQ9PWQUjwRGzq9gtw1VnYBXsEhAGrWtwA0detiWZZv79QAb00AVAoDCN1/h+PXNOfuC8M0ccnVf4Xpocl1um6g6LGhiGZFY1FoHjhYqoP5a3tIB7EHgBqWTKWnorr0ryl+7v4HAEXyHgBDx//Dy2+FUnK2ARSJbljTZuGmO+7HmrUbHL1WMyoV3feNv6ZpXPInX0l2AV7BHgBqxr8B2H1f2Dq8dAfZClXivuzRSBizplUXW6ib1iP0xEOOX9Pcaz7WrNuIG++43/FrNapS1lEq+vxzWwHiXTzhzwP8dTqUgxgAqCHJVHoSgC+18lo/j9UCco8Bnjt7+s4AEr7zr4ALy92Mvebjt3+82TPBzY8n+tUSi0WlnydBABgAduJ3IzXqmwASrbzQzwFA9qlsg/v/ay+vgrb6OecvqCi4Ze0AVr/+lvPXakBQGv9QSENkxKOcyUWVXDbj3w8kmzEAUF3JVHo8gK+0+no/TwCUfce2z54zAWFV7/5d8Ob4Gbj2jgdduVY9QWn8FUVBLNH0yBk5w+fjSPbiEAA14usAult9sZ97AOQHgBkIPf4w1I3rHL+WAHDhZhUVD5ykVy5XUA5A4w9UN/yROY+EdsEAMAQDAI0qmUqPBfDVdt7D3wFA3gf3pAljMSasIbz8Vleud3spimf6+1251mjKpQrKpWA0/oqqIMqufy8JxjeWTTgEQPV8GUBvqy8WQvg6AMhcArjPHjMRuv8OKIW849fabKm4YqClKR62ClLjD1Qn/nHDH09hD8AQDAA0omQqrQE4p5338HPjD8jtAdhnyliEVyx35VoX9SdQkDzpv1wqB6rxVzUV4UhYdhm0q+B8g9mAAYBG81EAs9t5A/8HAHk/IvuvfRFwYQvl5eUIHqvIbaiqjX+wNmjjXv+exB6AIRgAaDRfbvcN/LwCAJAXAMIhDXu/ucrx6/RZCn6fl9v1H8TGXwtpCIU5xcqD1souwEv4HUo1JVPpfQB8oN338XMPgMw9AOZGADd2i/9dPoE+S97/Z6lYRqUcrMYfACf+eZfzqdpH2ANAI/kSOnz6kszu/31EwfFrPFoJ476yvIYqqI2/qqm8+/cuBoAhGABoN8lUOgHg87LrkE1mAJiqOTv2XxAKLu6X1/VfLgWz8Qd49+9xDABDMABQLZ8Bz8yWugJgourslPzL83FsseT8+FfKlcCN+Q9SFIUz/73tedkFeAkDANXS8ra/QaIoEgOA5lwAWKmHcHtJzgx1vaIHYnvfkXC/f0/blMtmNssuwksYAGgXyVT6XQAOkV2HF8gMAJMc6gEoCwUX9Hc58t716LqBYiHAq7AUIBLl3b+Hsft/GAYAGo53/zvIWgUQUQR6VWdWT2QHYlhvuv9jbxgGigNF16/rpnAoJDU0Ul0MAMMwANBOyVR6IoCTZNfhFbI+zCc41Pi/oIdwczHmyHuPxjRMFAcCfOe/A8f+PY8BYBgGABrqJADcvmwHWQHAie5/AeCifAJu78pgmRYKA0Vf7wfRCEVRuPTP+xgAhmEAoKHa3vgnSGQFACcmAN5ZiuIVw42thd5mWRYGBgqBb/wBsPH3BwaAYRgACMDOg3+Oll2Hl0gLADb3ABSEgqsG4ra+Zz3CEijki77fCrpR4QgDgMeVAbwiuwivYQCgQYeBa/93krkNsN09ANcWYtju4na/QggMDBRgWZKPF3SJoigIhRgAPO7pXDbTGd+QTWAAoEHs/h9C6h4ANvYAvGWquKXg3sQ/IQQKA0VYZud81rL73xfulV2AFzEA0KBjZRfgJWpAAsBl+QQM296tvuJACabh/BHGXhIKuTu3glqyXHYBXsQAQIN7/x8huw4vCcIugE9WwlhRcW9pWrFQgmG4GTe8QWMA8DoB4D7ZRXgRAwABwPsAcA/TIWQFgIQikFDanzhnAbjUxYl/lXIFekV37XpeoSiK1EOjqCFP57KZLbKL8CJ+5xLA8f/dyJoEaNfd/63FKF53admfYZiB3t9/NOz+9wWO/4+AAYAABoDdyOoBGGvDLoAloeCagjt3/5ZlBX6L39Gw+98XOP4/AgaADpdMpecCWCC7Dq+RFQB6lfZ7AJYVo+hzYdmfEALFDtjlbzQMAL7AADACBgA6UXYBXiQtALTZA1ASCm5yab//UqEEs4OW+9WiKvwI9bjnc9nMetlFeBW/e+kE2QV4kawA0NPmBEC37v7LpQp0vfNm/O+Gh/95Hcf/R8EA0MGSqfQeABbJrsOTJH2w97axB4Bbd/+GbqBc6sxJf8Px+F/Pe0Z2AV7GANDZvi67ANpVO0MAbtz9W6aFYiH4R/s2IhQKdfb4hz+cIrsAL2MA6FDJVHoagHNk10G7anUIwI27/8Ftfjt50t9QsXiUn5/e94TsAryM38Cd6zsA3Nsk3nckzQFocQjAjbv/4kCpYw74qSccCUPV+PHpA8tkF+Bl/A7uQMlUegaAs2XXQbtrZQjABHBLMWp/MUOUy5WO3Oa3FkVREIs7+/dNtqgAuFt2EV7GANCZ/hMAP8FGIWtqV28LQwCPV8LYajn3o2xZFif9DRGNRTj5zx+W57KZzt2lqgEMAB0mmUofCt79e1JEEYi2EADuLDmb5YqFUvU4FYKqqohEeWyGT/xFdgFexwDQQZKptArgIvDf3ZNamQC4zVLxWNm5E/8qFb3jjvcdDbv+fYXj/3WwIegsZwN4h+wifEFCD28r4/93lyJwqnkWlkC5Qw/5qSUUCiEUDskugxrzSi6beU12EV7HANAhkqn0ZAA/ll0HjayVTYByJee6o4vFEpf8DcG7f1+5XnYBfsAA0Dl+BmCs7CJoZM1OAFylh/CG6cxhNLpuwOBWvztFohEu+/OXW2QX4Af8ju4AyVT6/QBOl10Hja6nySGAOx26+xdCoFTkbn+DFEVBNMaJfz5SAPCg7CL8gAEg4JKpdBjAhbLroPqa6QEoCQX3l51plErFMoTFrv9B0XiUy/78JZfLZth91QAGgOD7BoD9ZRfhP+5/4DezC+D95QhKwv4aDcOEXtFtf1+/0jQVkYhzqyzIEdfJLsAvGAACLJlKzwbwX7Lr8CMZ93vNrAJwovtfCIESD/rZRSzO3bJ9RgD4u+wi/IIBINj+D0BCdhHUmEb3AXjD1LBKt385WrlU4V7/Q4TDIWghZyZZkmNW5bKZTbKL8AsGgIBKptIfA/AJ2XX4lZCw9V2jywAzvPsOAAAgAElEQVSdWPpnmiYq5Yrt7+tbSnXsn3znWtkF+AkDQADtmPj3C9l1+JmM9e+NDAGYqG7+Y7dSgRv+DBWNRqCq/Hj0oZtkF+An/A4PprMB7CO7CD+TMQu+kVUAj5XD2GbzwT96xYBpcrvfQaqqcL9/f9oO4EnZRfgJA0DAJFPpHnDiX9vc7gGIKAKRBgKAEwf/8KS/XUVjMS7786e/5bIZrl9tAgNA8HwLwGTZRfid2yMA3Q00/lstFY9X7F2SVilz4t9QWkhDOML9/n2K4/9NYgAIkGQqPR3Vdf/UJrd7ABINBAC7D/4RQqBc4sS/objsz7dMAHfKLsJvGACC5Yfgsj9buB0AuhqYAGj32v9yqcLDfoaIRMLQuN+/Xz2Sy2bysovwG363B0QylZ4KYInsOoLCaz0Az+ohvGXjwT+WZXHZ3xCKonDZn79x978WcLArOM4BwD1LbeL2uHi9AGD35L9ykRP/horGIlAUBdPGWjjlnWVMH2dhTFxgTFzAsIAX1mnI3BnH5jwnB3rUMtkF+BEDQADsWPd/juw6gsTtANA1SgAoCgUPlu3LdqZhQudRvzupqopJY8M49YgSPn5IGbU2/5s6xsKs8RbOvLTb/QKpntdz2cyLsovwIwaAYPgUgGmyiwgSYYnqruIu3fAlRpkDYPfBPyUu+9spGgaWHK0idUQ/EtHRe2FmjONeCR71Z9kF+BUDQDCkZRcQRJZlQXVpUthoQwB2Tv7TdQOmwYZMVYCPHibwxQ8Ak3obmwvx1jaeC+BR7P5vEQOAzyVT6QMAvEd2HUHkZgAYaQhgjanheRsP/uHYP/CefQX+5TiBvaY097rrV3B3QA8qAFguuwi/YgDwv8/LLiCo3JwHMFIPwJ1F+xqdTt/0Z/+ZwFc/LHDYXs2t8BBC4LFXw7j1KQYAD7ohl81wOUuLGAB8bMfkv9Nk1xFUlovnAdQKABaAe8r2zP7v5E1/powB/vUjAscuEGhmh1+rYsAs6bCicSx7MoKFswyYloLn12rQOYriFdfILsDPGAD8bTG47a9jLNO9u+VaGwE9XQlhu2XP5L9O3fRnrylA5gwLk3obf42lmzAKFYRiYYR74wCAH3yysPPr+bKC5avCyD4Uxbrt3EpFoj4At8suws/43etvZ8guIMhMy73bvFo9AA+U7ely7tRNfxbMBn539iiNvwCEYUGY1f+sigl9WxGVrQWEu2NQo7Xvj7qjAh85qIL//fQAxiY6L1R5yJ9y2QzXs7aBAcCnduz892HZdQSZsIRrd83DA4AF4KGKPQGgEyf+vXuewAVfsNA7fGNsAVhlA5VtRRTX96G0vh+lddX/KlsGoIQ1xCb3QNHq97zMGGfhvBMHEA0zBEhytewC/I5DAP51Ovjv5zjLtKDV2hnGZsMDwFOVMPps6P43zc7b9OcDCwV+dLJ4e0MfAZgVA2ZRh1nQoUY1RMbEERkbb/ta+04z8b55Bu54hptwumwzOPu/bWxA/Ivd/y4wXQoAw+cAPGDTzn+dNvHvxHcJ/PvHBVQI6P0VGPkyhCWghlVosQiik7uhhuzt+NQ7d2GFTFflshn+zbeJAcCHkqn0mQDmy66jE1iWCaePWIgoAkMjhgXgYRu6/03ThNFBd/9nJgXOObYapCpbirB0E6HuCELxCBSbG/1Bdz4Txr2rePcvAbv/bcAA4DPJVPogAL+RXUenMF1YCTB8E6CVNnX/l4udcfevKMA3Pyrw6SOqf4/CtBDqjkCNOPfxppvABbk4bn6CewO4TQhR6N+eXyG7jiBgAPCRZCrdg+qxlzHZtXQKN5YCDh//t+PgH9MwYRjBv/sPacD3TxQ47mABYQkoigJFVaE4tIOjEMCDL4Vx5f1RvLSBWwPLYBrmIyuWXcGZlzZgAPCX3wPYR3YRnUSIHQ2L6typQEMDgAl7Zv93woE/sTDwk5TAkfMErLIBNaK1fXiTEKI6WbBkAEM2grKiUdz+YhzXr4jhrW1cPCWVonxfdglBwQDgE8lU+isATpZdRycyTRMh1bkflaETAJ+qhNHfZve/YZiBP/CnJwb86nMWDpotYBnWiGv2GyGsHY1+sQJAgRYPIxR7+/10U0Hm7gRufa79VQPUHssS2+/900X3ya4jKBgAfCCZSh8O4Jey6+hUTu+fP7QHwI7Z/+WA3/1P7AF+c4aFuZOr5zWr4ea74o1CBUI3YekmLN1CKBFBZGyi5mRBDcBXjtPx5Fvc+U86IZbKLiFI+N3scclUeiyAawFwtpEkTk8EHAwAJtqf/W8E/LjfmROAP3zRxJwxOgDRdJe/VTZQWt+PytYiLMNCqCuK+LQehMfERl0pkIgIHLewMyZVepmqqefLriFI2APgfZcDmCO7iE7m9ETAwVUAdnT/B3nd/15TgIvOMDGuS0DRmuwpEQL69hLMsoFQTwxaLNT0vI6K4dw8EKpPCLHqrqsveEl2HUHCAOBhyVT6ywA+IbuOTuf0mQCJHXMA7m+z+9/QDZhmMO/+Z00ALjzDwrguND3D36qYqGwtQIuHEZvc0/JEwb4iA4BMiqL8RHYNQcMA4FHJVHpfAD+XXQehun+8ZUFVnRkxSyii2v3f5uE/QR37nzIGuPBMCxN6gaZabyGg95VglgxExiWqqwRaVCgruP8FbvgjUQXVoVCyEQOAByVT6TCALABOO/YI03QuAHQpAisrYeRF63eYum64smmR2xLR6oS/qWObe51VMWHkS9DiEYTHtP9j9MeHo9hWYA+ALEKIpXddfUFRdh1BwwDgTT8EcKjsIuhtlmk5tiNwQhFtz/4P4t2/ogA/OllgzuQmXiQAs6gDKhAZ32VLHWu3qbjhMc7BlUlRlAtk1xBEDAAek0yl3wvg/8mug3bl5Nh6VGmv+1+v6K7sWOi2s5MC79+/iQ3fBCBME1rCpoOUdAXXPhrBnx6NoswJgPIIrM5dnXlCdhlBxADgIclUuhfAleDyTM9xcmndGlNrq/s/iDP/jz5A4AvHNNb4C9MCFAWKqkCx4eRGIYDbno7g0uVRbM7zR1E6hXOhnMIA4C0ZAHvKLoJ2J4RwbCLgM3rrP4Z6RXd8oyK3zZ0C/OBkAaVOJhKWgDBMKCHNtq2a//FqCBffFcPLG7nPv0cY4Ml/jmEA8IhkKn0ygNNk10EjMw0LasT+APBUpfUfwyDe/f/nCRYSdUZEhCUAAdtO/Htlo4ZL7olhxcv8SPSYa3PZTJ/sIoKK3+0ekEylZwC4WHYdNDrTNBF24Eem0GL3fyWAd/9Hzhc4cNbozxGmZdtpf1sGFFx2Xwy3rowMPfuHvONC2QUEGQOAZMlUWgFwBYBxsmuh0Xltk51KAO/+zzl2lFZYCJhlE1qs/Y+twQl+1zwSRUnnBD+PejWXzTwgu4ggYwCQ72sAkrKLoPq8FACCOPb/vv0E9ps58tct3Wq78RcCuPWpCC67jxP8fOA3sgsIOgYAiZKp9AIAP5ZdBzVIVEOApsmfIBa0sX9FAc4e7e4faGsnP4AT/HzGQHVFFDmIAUCSZCodRXW3v6jsWqhxpmFJDwBBvPt///4C86c7896c4OdLN+aymU2yiwg6/kTI8z8AFsgugppTHQaQuyd8uRy8u/9Rx/4bIQSGrxvcnFdw+f2c4OdT7P53AQOABMlU+hgAX5ddBzVP9jwAQzcCt+tf8kCBvae29lpLN2EUKrBKBqITu6BoKixLwQW5KG59KsIJfv70ZC6bWS67iE7AAOCyZCrdA+BStHwoKclkmRaEEFDq7VLjkKCN/asKcFay+dtzy7Bg9JVgFKp/H4qqQFgCigaoqsC2gsrG37/+V3YBnYLTYN33CwB7yC6CWifr1D1DN6T3QNjtiPkCe01p/PmWbqK8pYDSuj4YhQoUVUG4N4bY1F6o4bfnZnzkoGAFpQ6yHsB1sovoFOwBcFEylf4QgLNk10HtMf9/e/ceJFlV3wH8e7tvT8/sexcWeUh4iKCAiA/EEBW1S0EsNEYtox3zsDQVy06qrErKPEyqEkl8g8bxAWhphwyCEiOaXlGZXZAF2W157Cq7C+wquy4IsgvjTvd9n3PyR8+je6Z7+nW7z723v58qaqab2Z5fTc30/Z7fueecQMAMYc/5biVt7h8A/ujizr5OBRLeMRvC8gHURvzmmizMNdmm2wCfuTlZQWmEfHp6ajLQXcSoYAAYkly+sB7AV3XXQf3TMQoPAjHQA4l0OGlDbee/lSilEMy68GcdQM1d+NdmYa5ufuGfN+uw/R9DDoDrdRcxShgAhudzAFbY5oTiQkcA8Bx36N9z0N72CoVW13AZCAQVD6Lq1e65SBkw12WRWZNddrd/Mw8/ybX+MXQd9/0fLgaAIcjlC28G8Oe666BwKKkgpUIqpBPo2hGBQJCw0b+ZBt560fLRv/QF/GMOhL3Y6s+sG+/4wi8V8K0dWXxj+3joNdNAKQBX6y5i1DAADFguX9gItrUSRwiBVGo4fz5JnPt/+ZkKm9Y0PhdUPXjPWgAWW/2dXvgB4PAzKXyytAp7nuDoP4b+b3pq8qDuIkYNA8Dg/SeAk3QXQeESQYBMZvB/PkJIBH7y7ol65dmNj6UbwJuxaw8MIHv86o6P+lUAvvOzLL52ZxZuwLn/mLpKdwGjiAFggHL5wh8C+BPddVD4htWST+LcPwBccvZi+196Au6RKqAU0uMmxjatXvEGv3q/mUnhU1smsPvXfCuLsfumpyZ36i5iFPGvZkBy+cJxAL6iuw4aDClkbeOZAd4HIIWEn8DR/6Y1wBkn1D5XQsI9UoFStUCQWTve8c/0+w+M4do7xmF7HPXHHEf/mjAADM4XAXSxxQnFTRAIZDpsU/ciiXP/AHDucxdH/0HFhZrbqD+VSSOVbf/zfPpYCp/+wQTue4xvXwlwCMD3dBcxqvgXNAC5fOEdAN6lu46kyWRMZMYyUKp2F75SsvZRKkglFy4kwyKCYGABQEoJ3/MH8tq6nVe3GFY4tQ6HkU4he/zqtv92294MrvnhBKouR/0J8cnpqclkHW4RIwwAIcvlC5sBfEl3HVEx39rtl2EYGF813nYP/vow0BASlIKSi5+HYZD3ASRtz/96551a90CphZv+jHTrncndwMDk7ePYsmts8AXSsDyF2rkopAkDQPi+DGCz7iKiIqx98zu5+AO15WNppIE2K8GknAsJc8Gg/vPax/ZBYf41wr4PQEqV2NE/0DgFAACZdeMN+/gv9diRND526wQeO8LlfQnzL9NTk47uIkYZA0CIcvnCuwG8XXcdUdJs+9rNaxVmLAN+hwNoM2OGvuQulUoBqZVzglLznQNVu9jPTz3UhYQgCJAZy4Ram5fQuX8AOPM5wPpVi49TYyYya1tv2rNl1xgmbx/n8r7kOQSO/rVjAAhJLl84EcCk7jqiZP7CuW6VwiueB7zybIWLzwJO3ABIpfDU74DDR4HDRw3sOQzc/nOgsmQPd8MwMLFKz65uhmHUug4p1LoKQ6BUdEb/yzouBmDUn2Jt1H8wWj5eeM4AXne+BLDYFcpsmGj6vS3XwNU/nMC2veGGK4qMv+ehP/oxAITnWgCbdBcRJYEQeO9rFD50mcLS6d2UUTsM5qQNwEXPU3jbK4C/uxK4cy9QesDAvY8AQgLjE9mOWv9JIYXEWHZsyeZ3xtLr6cLueEbdl9Rdehuea3xc91zDBXrpNxiM15xbaXjcbPrk4SfTuOrWVXhihqeVJ9SjAG7SXQQBRlg3RI2yXL7wXgD/pbuOKFk1Bvzt5bO49IW93QPwTAW4bmsGP967qv0XUyyYaeDDl9ktDwACgCdmUvjmvVkk7OgDavSW6anJ7+sughgA+pbLF04G8BCADbpriYrnbpK46u1VnLqp9xsAq66B931tDY7MchRIlCAPTU9Nnq+7CKrhu2v/rgcv/g0+coXV18UfAL68dZwXf6Lk+WvdBdAivsP2IZcvvA/AFbrriJLXvsDHuaf017/d/1Qat+3mem+ihLl/empym+4iaBEDQI9y+cKpAK7RXUeUZEzgA6/tf1nvV7aNgxNTRInzQd0FUCOuAujdVwGs011ElLztpS5OXN9f63/HARMPHOSvJVGSKKXu3XrjF3niX8SwA9CDXL7wlwDeqLuOqLnywv42sJEKuPaO5uvCiSi+DMN4v+4aaDkOtbqUyxdOA/AZ3XVEzYnrJU7e2N/of8uuMRw8wkxKlCRKqdu23vjFh3TXQcvx3bYLuXzBQG37yrW6a4mal5/R36ZetmeguF3Pjn9ENDDSMIwP6C6CmmMHoDtvBfB63UVE0ctO7y8A3Lwzi2eqo7PjH9EoEEJ+9o6bvnRYdx3UHDsA3fkL3QVEkWEALzmt9wBwtJLCt3Zy2R9RkkgpZ9Pp1D/oroNaYwegQ7l84QQAb9JdRxSdc2KAteO9L9yb+mkWrs/RP1GSBH7wobtuuY6bOkcYOwCdywPg0WRNvKyP+f8Zy8Btu/ljJUoS3/MP3XXLdTforoNWxgDQuT/VXUBUXXhq7yH/u/dledY7UYJIqeC5HqdLY4ABoAO5fOFEABfqriOqztjc2/I/xzfw3fs590+UJK7j7r73e1/fqrsOao8BoDOv011AVK2bUNi4urcAUNo1hlmHo3+ipAj8AL7n/43uOqgzDACd4dK/Fk4/vrf2fyCBb5c5+idKCqUUHNvdWS4V79RdC3WGAaAzDAAt9Nr+37pnDE8f468fUVK4jgcp5T/proM6x3fgNnL5wukAztRdR1Sddlz3HQAF4OYdHP0TJYUQAp7r7SiXirfrroU6xwDQHkf/K+hlCmDnAROPHUkPoBoi0sGxXAD4N911UHcYANp7je4Couz0HqYASrs4+idKCtdxIYS4v1wqbtFdC3WHAaA9Lv9rYXVWYf1EdzsAzlgG7j3AjX+IkiDwA7iOBwAf010LdY8BYAW5fCED4IW664iqjau73/73R78Yg+jv1GAiigApJWzLAYCfA7hVcznUAwaAlb0AAPvVLWxY1X0A+MFu/jiJksCuOlBKAcBV5VKx98NASBsGgJVdoLuAKNvYZQDY83gah47yV44o7hzbgRACAPYBuEVzOdQjvhuvjAFgBd3uALiFo3+i2PM9H57rzz/893KpyEm9mGIAWBkDwAq6mQJwfAN37OPNf0RxJoWEY7vzD/cD+KbGcqhPDAArYwBYQTcdgDv3ZWB73PefKK6UUrCq9vy8PwB8vFwq9n4UKGnHANBCLl84DsDJuuuIsm46ANs4+ieKNcdyIOVC6H8MwA36qqEwMAC0xtF/G+s7DACWa+CBg+aAqyGiQfFcD74f1D/1iXKp6Lf6eooHBoDWGADayKQ7CwA7fmkiYKOQKJaCQNTP+wPAYQBf11QOhYgBoDUGgDYyHW7nv/0Rtv+J4kgICbtqL336U+VS0dNRD4WLAaA1BoA2OukA+ALY+Uu2/4niRkoJq2LV3/QHAE8CuF5TSRQyBoAmcvlCGsB5uuuIuky6/V399z9mwuLd/0SxoqSCVbGXXvwB4DPlUtHRUROFjwGgubMATOguIurMVPtlgNsfZfufKE6UUqhWrfo7/ucdAfAVDSXRgDAANMf2fwfa3QOgFHAPAwBRbMyv9ZfNT+y6ulwqVoddEw0OA0BzDAAdaBcA9v82jRmL7X+iuLAtB6L5kp1nAUwOuRwaMAaA5hgAOmC2uQnwQa79J4oN23IQNK71r/f5cqk4O8x6aPAYAJo7X3cBcfBX31iNb91r4liLUf6DhxgAiOLAsV34Xst9fY4B+PwQy6Eh4Tt0c6foLiAODj9r4to7TXz9buBVz3dx5YUeLvi92tyhVMDuwx1uFEBE2riOB89dcVn/F8ql4syw6qHhYQBYIpcvbAKQ1V1HnHgBsHVvFlv3ZnHacQJvusDFb3+nYLmc/yeKMs/z4TruSl9SBXDNkMqhIWMAWI4HAPXh4NE0PrelNvIf50JKosjyPR+O1XZJ/5fKpeLRYdRDw8cAsNxJuguIP4VMhsv/iKLKc304dtuLvw3gs0MohzRhAFiOHYA+SamQNjn/TxRFnustPdynlevLpeJTg66H9GEAWI4dgD5IKZvtIEZEEeA6Xrs5/3k+gM8MuBzSjAFgOQaAPniOh1SKq0uJosZ1XLhOx4f43VAuFX89yHpIP75TL8cpgD4IIZBO89eKKEocu6uLvwTwiQGWQxHBd+rl2AHogxASqTTn/4miwrGcduv8l7qlXCo+Oqh6KDo4BbAcOwA9mj9AhB0AomiwLWelHf5a+fggaqHoYQBYjh2AHom5m/94DwCRfnbVht96b/9WtpRLxQcHUQ9FDwNAnVy+sAHAuO464koKiRRH/0R6KcCy7JUO9lnJf4RdDkUXA0Ajtv/7IIVAmqN/Im2UUrCqdqsjfdv5SblUvDvsmii6GAAasf3fB6XADYCINJFSwqrY/ezD8YUw66HoYwBoxA5AnzgFQDR8IhCwqjaUUr2+xNMAvhdiSRQDDACN2AHoE1cAEA2X7/mw2x/q084N5VKxq7WCFH8MAI0YAPrEFQBEw9PF1r7tfC2MF6F4YQBoxCmAPvDiTzQ8Pa7xb+aecqm4J4wXonhhAGjEDkAfUilDdwlEiaeUgl11EAQ9LfNrhqP/EcUA0IgdgD4YDABEAyWlgl21IERoJ27OArg5rBejeGEAaLRedwGxZjAAEA2KCAQsy4aSPd/p38xN5VKxGuYLUnwwADTK6i4gznj5JxoMz/Ph9H+nfzNs/48wBoBGY7oLiDODHQCi0IV4s99Sh8ql4o5BvDDFAwNAIwaAHkkp2QIgClFtvt+GED1t69uJWwf1whQPDABzcvlCBryE9SzwA5gZ/joRhSGEnf06wQAw4rhwexHn//sQBIJTAEQh8FwP1Yo16Iv/DICfDPIbUPRxyLaI7f8+KKkYAIj6oQDbHth8/1JbyqXiUL4RRRcDwCJ2APrAiz9R76SQsC07zPX97bD9TwwAddgB6AMDAFFvPNeH4zjAQDv+jd8SwG1D+24UWQwAixgA+sDrP1F3lFKwLQeBH9qWvp3aVi4Vjw37m1L0MAAs4lGY/WACIOpYEASwLSfsXf06xfY/AWAAqFfRXUCccQqAqDOO7cJztY43fqzzm1N0MAAsYgAgooHRcKNfM0+XS8X9Ogug6OA+AHOmpyZdAEOfjCOi5PM8H9VKqKf49eqnugug6GAHoFEFwAbdRRBRMmi80a+Ve3QXQNHBANCIAYCIQhEEAnb4x/f2iwGAFjAANOJ9AETUtwjc6NeMD+Bnuoug6GAAaMQAQEQ9E0LAsZwozPU380C5VLR1F0HRwQDQ6BndBRBR/Cil4DpeFEf99XgDIDXgKoBGu3QXQETxEgQBqrNW1C/+AOf/aQl2ABrdp7sAIooHpRQc2x3W6X1h2KG7AIoWBoBGDAA9GvDZ5USRIqWEVbUhoznX34wF4JDuIihaOAXQ6ACAX+suIpYYAGhEBIFAddaK08UfAB4pl4r8I6UGDAB1pqcmFYCi7jriiNd/GgWe68GqWHHseO3TXQBFDwPAct/AME/mTgjFHxklmJQKVsWCY7u6S+nVw7oLoOhhAFhiemryAICtuuuImxiOiIg64ns+qrNVBIHQXUo/GABoGQaA5j4MHgzUFcMwGAIoUaSUsKs2bMtJwu82AwAtwwDQxPTU5M8BXKO7jjgxwC4AJUNtUx8Xldkq/Ogc4tOvR3QXQNHDANDavwJ4VHcRcZFKp6J26AlR13zPR2W2CtfxknQn0OPlUpHbnNMyDAAtTE9NVgFcAeCo7lriwDRNWJaN6mwV1YoFq2IvtE8d24XruAtbpfqeD98PEPgBRCAghICUEkopdhFIi8Cv7eZnW04SgyxXAFBT3AhoBdNTk/tz+cJbAEwDGNddT5SlzTSgACHDWRttGMbCR8MAYBi1z1H3ee0BDGPu6+uer/37+s+JlvM9H67rxW1Nf7e4twk1xQDQxvTU5D25fOEKADcBOEF3PVGWTqcRBOHMmc53AsLsCNRCAmBg5VBhLHw+HyoaA0n9R4ofpRR8z4fnepDJG+03wy4mNcUA0IHpqcltuXzhpQC+DeD3ddcTVdnxMWRUBphr5SuFxbb+kscK888Pr7757xfmngULocIwFoKFYRgwUqnFQJEyGkIFQ4QeQgj4XgDf80dtqumI7gIomhgAOjQ9Nfl4Ll+4FMDVAAq664mitJlGuod/txAK5kICljyu//9Nw4VGYYSKMRM4eZOBzesU3vMq4Ph1Bqpu7T/LM2C5BqouUJ3/fOE5A5aH2se550frutaeCMTC/SYypOmpGGIHgJoydL+BxlEuX3gPgOsArNZdC6F1cIBqGSaWdiSiYDwD/OijEhNjvb+G7dVCQ9XFQoCY/7jroIHt+wzMWEbD9MfidAcaOhRxFQQCgV+70TSBN/T14u3lUvE7uoug6GEHoAfTU5M35vKF+wB8DMA7UFsGT5rU3xDYq4WRfMMUBVp3HQbQibjkHNXXxR8AJsYUJsYUjltTe+z5wJYHDdx0t4EDT3X+OsunNpbcN7H0xkvUB4nh3HyppIKQAlJICCEhhVxYTUIN2AGgptgB6FMuXzgPwD8DeCe4rHKkNYQItJ7SqO/Tn3uKwJkn1LaYvfzFCi85I5xanp41cMtPge/sMDBjhfOaveg4SDSEt+bvSQq1i74UAkLwQt+FF5VLxV/oLoKihwEgJLl84YUAPgrgj8EgQB1IGcDNHzqGTavD+xvcexi48R4Dt+82EO+t6ylEJ5dLxd/oLoKihwEgZLl84XkA3o1aR+ACzeVQhF10ZoBPvLPa9+tYLrDtIQP/uxPYdZCzUbRMtlwqerqLoOhhABigXL5wNmpB4J0AXqy5HIqYf7zSQu5cv6d/KxWwc7+BLfcDd+wxYPPtnZqrlkvFNbqLoGhiABiSXL5wBoA/AHAJansJvAjoadUcJcDEmML/FGaRzXT39/fob4AtDxi47UEDR2YHVJQLcSsAAALgSURBVBwlye/KpeIG3UVQNHEVwJBMT03+CsCvAPw3AOTyhTUAXgrgHABn1f33fAATmsqkIXn12X5HF3+lgL2PG7hrL3DHHmD/k2zxU1f4C0MtMQBoMj01WQHwk7n/FuTyhTEArwZwOYDLUOsUUMK84fzWrX/LBXYeqF30t+8z8AzPcaPeMQBQS5wCiLhcvnAKakHgcgBvAMB2Xswdv1bipg/Oon6Z/BPPAnftM7B9L3D/rwx4iTmGnjSrlEvFtbqLoGhiAIiRXL6QBnAxamHgcgAvA5ccxs67Lnbx/ksd7D5YG+Hftc/AL7vYpIeoCwwA1BIDQIzl8oXjAbwRtQ7BZQCeo7ci6sRZx1Xw8GGFqqu7EhoBXAVALTEAJEQuXzAAXIjF7sAl4D0ekSOERHW2/7X/RB2yyqUizyyhphgAEiqXL6wDkMNiIPg9vRURADi2C8/lon0aGrtcKq7SXQRFEwPAiJjbqnh+ZcGlAMb1VjSaZo9VeEIdDZNTLhW5rJiaYgAYQbl8YQK1EDDfHThHb0WjIQgCWBVbdxk0WoJyqZjRXQRFEwMAIZcvnI7FMPB6ALxreABsy4Hv9bb1L1EfNpZLxRndRVD0MABQg1y+kEFty+LLhBAfSafT3EgkBEopVI5VeYQt6XBOuVR8RHcRFD0MANTURW/+s/UAZgzDgJkxYZppmKYJI8U80Avf82Fbju4yaDS9qlwq3q27CIoeLhOjVjYCtZGr7/kLretUOgXTrAWCtJmGYTAQdIKtf9LoBN0FUDQxAFArG5s9KYWEJzx4c5vYmGYa6YwJ0zSRTnNTwmaUVAgCobsMGl0MANQUAwC1sqmTLwoCgSAQcOGC0wXN+T5H/6TVZt0FUDQxAFArTTsAK1lpusA0zZE9l8xj+5/0YgeAmmIAoFa6DgBLNZsuMDMm0qaJ1Ih0B6SQkELqLoNGGzsA1BQDALXS0RRAN+anCwCegkM0ROwAUFP/D7baRICP0uKKAAAAAElFTkSuQmCC;" vertex="1" parent="1">
          <mxGeometry x="210" y="310" width="80" height="80" as="geometry" />
        </mxCell>
        <mxCell id="zCbiE_UP_g8nWA5C_TtH-29" style="edgeStyle=orthogonalEdgeStyle;rounded=0;orthogonalLoop=1;jettySize=auto;html=1;" edge="1" parent="1" source="zCbiE_UP_g8nWA5C_TtH-17" target="zCbiE_UP_g8nWA5C_TtH-26">
          <mxGeometry relative="1" as="geometry" />
        </mxCell>
        <mxCell id="zCbiE_UP_g8nWA5C_TtH-30" value="city corporation&lt;br&gt;&amp;nbsp;representative" style="text;html=1;align=center;verticalAlign=middle;resizable=0;points=[];autosize=1;strokeColor=none;fillColor=none;" vertex="1" parent="1">
          <mxGeometry x="210" y="380" width="100" height="40" as="geometry" />
        </mxCell>
      </root>
    </mxGraphModel>
  </diagram>
</mxfile>
